%TF.GenerationSoftware,KiCad,Pcbnew,6.0.6-3a73a75311~116~ubuntu20.04.1*%
%TF.CreationDate,2022-07-03T10:43:36+02:00*%
%TF.ProjectId,MD_Mod,4d445f4d-6f64-42e6-9b69-6361645f7063,rev?*%
%TF.SameCoordinates,Original*%
%TF.FileFunction,Legend,Bot*%
%TF.FilePolarity,Positive*%
%FSLAX46Y46*%
G04 Gerber Fmt 4.6, Leading zero omitted, Abs format (unit mm)*
G04 Created by KiCad (PCBNEW 6.0.6-3a73a75311~116~ubuntu20.04.1) date 2022-07-03 10:43:36*
%MOMM*%
%LPD*%
G01*
G04 APERTURE LIST*
%ADD10C,0.150000*%
%ADD11C,0.010000*%
G04 APERTURE END LIST*
D10*
X154288238Y-102558380D02*
X154288238Y-101558380D01*
X153954904Y-102272666D01*
X153621571Y-101558380D01*
X153621571Y-102558380D01*
X153145380Y-102558380D02*
X153145380Y-101558380D01*
X152907285Y-101558380D01*
X152764428Y-101606000D01*
X152669190Y-101701238D01*
X152621571Y-101796476D01*
X152573952Y-101986952D01*
X152573952Y-102129809D01*
X152621571Y-102320285D01*
X152669190Y-102415523D01*
X152764428Y-102510761D01*
X152907285Y-102558380D01*
X153145380Y-102558380D01*
X151431095Y-102510761D02*
X151288238Y-102558380D01*
X151050142Y-102558380D01*
X150954904Y-102510761D01*
X150907285Y-102463142D01*
X150859666Y-102367904D01*
X150859666Y-102272666D01*
X150907285Y-102177428D01*
X150954904Y-102129809D01*
X151050142Y-102082190D01*
X151240619Y-102034571D01*
X151335857Y-101986952D01*
X151383476Y-101939333D01*
X151431095Y-101844095D01*
X151431095Y-101748857D01*
X151383476Y-101653619D01*
X151335857Y-101606000D01*
X151240619Y-101558380D01*
X151002523Y-101558380D01*
X150859666Y-101606000D01*
X150526333Y-101891714D02*
X150335857Y-102558380D01*
X150145380Y-102082190D01*
X149954904Y-102558380D01*
X149764428Y-101891714D01*
X149383476Y-102558380D02*
X149383476Y-101891714D01*
X149383476Y-101558380D02*
X149431095Y-101606000D01*
X149383476Y-101653619D01*
X149335857Y-101606000D01*
X149383476Y-101558380D01*
X149383476Y-101653619D01*
X149050142Y-101891714D02*
X148669190Y-101891714D01*
X148907285Y-101558380D02*
X148907285Y-102415523D01*
X148859666Y-102510761D01*
X148764428Y-102558380D01*
X148669190Y-102558380D01*
X147907285Y-102510761D02*
X148002523Y-102558380D01*
X148193000Y-102558380D01*
X148288238Y-102510761D01*
X148335857Y-102463142D01*
X148383476Y-102367904D01*
X148383476Y-102082190D01*
X148335857Y-101986952D01*
X148288238Y-101939333D01*
X148193000Y-101891714D01*
X148002523Y-101891714D01*
X147907285Y-101939333D01*
X147478714Y-102558380D02*
X147478714Y-101558380D01*
X147050142Y-102558380D02*
X147050142Y-102034571D01*
X147097761Y-101939333D01*
X147193000Y-101891714D01*
X147335857Y-101891714D01*
X147431095Y-101939333D01*
X147478714Y-101986952D01*
X146431095Y-102558380D02*
X146526333Y-102510761D01*
X146573952Y-102415523D01*
X146573952Y-101558380D01*
X145669190Y-102510761D02*
X145764428Y-102558380D01*
X145954904Y-102558380D01*
X146050142Y-102510761D01*
X146097761Y-102415523D01*
X146097761Y-102034571D01*
X146050142Y-101939333D01*
X145954904Y-101891714D01*
X145764428Y-101891714D01*
X145669190Y-101939333D01*
X145621571Y-102034571D01*
X145621571Y-102129809D01*
X146097761Y-102225047D01*
X145240619Y-102510761D02*
X145145380Y-102558380D01*
X144954904Y-102558380D01*
X144859666Y-102510761D01*
X144812047Y-102415523D01*
X144812047Y-102367904D01*
X144859666Y-102272666D01*
X144954904Y-102225047D01*
X145097761Y-102225047D01*
X145193000Y-102177428D01*
X145240619Y-102082190D01*
X145240619Y-102034571D01*
X145193000Y-101939333D01*
X145097761Y-101891714D01*
X144954904Y-101891714D01*
X144859666Y-101939333D01*
X144431095Y-102510761D02*
X144335857Y-102558380D01*
X144145380Y-102558380D01*
X144050142Y-102510761D01*
X144002523Y-102415523D01*
X144002523Y-102367904D01*
X144050142Y-102272666D01*
X144145380Y-102225047D01*
X144288238Y-102225047D01*
X144383476Y-102177428D01*
X144431095Y-102082190D01*
X144431095Y-102034571D01*
X144383476Y-101939333D01*
X144288238Y-101891714D01*
X144145380Y-101891714D01*
X144050142Y-101939333D01*
X142812047Y-102558380D02*
X142812047Y-101558380D01*
X142478714Y-102272666D01*
X142145380Y-101558380D01*
X142145380Y-102558380D01*
X141478714Y-101558380D02*
X141288238Y-101558380D01*
X141193000Y-101606000D01*
X141097761Y-101701238D01*
X141050142Y-101891714D01*
X141050142Y-102225047D01*
X141097761Y-102415523D01*
X141193000Y-102510761D01*
X141288238Y-102558380D01*
X141478714Y-102558380D01*
X141573952Y-102510761D01*
X141669190Y-102415523D01*
X141716809Y-102225047D01*
X141716809Y-101891714D01*
X141669190Y-101701238D01*
X141573952Y-101606000D01*
X141478714Y-101558380D01*
X140621571Y-102558380D02*
X140621571Y-101558380D01*
X140383476Y-101558380D01*
X140240619Y-101606000D01*
X140145380Y-101701238D01*
X140097761Y-101796476D01*
X140050142Y-101986952D01*
X140050142Y-102129809D01*
X140097761Y-102320285D01*
X140145380Y-102415523D01*
X140240619Y-102510761D01*
X140383476Y-102558380D01*
X140621571Y-102558380D01*
X151002523Y-104168380D02*
X151002523Y-103168380D01*
X150621571Y-103168380D01*
X150526333Y-103216000D01*
X150478714Y-103263619D01*
X150431095Y-103358857D01*
X150431095Y-103501714D01*
X150478714Y-103596952D01*
X150526333Y-103644571D01*
X150621571Y-103692190D01*
X151002523Y-103692190D01*
X150002523Y-104168380D02*
X150002523Y-103168380D01*
X148954904Y-104073142D02*
X149002523Y-104120761D01*
X149145380Y-104168380D01*
X149240619Y-104168380D01*
X149383476Y-104120761D01*
X149478714Y-104025523D01*
X149526333Y-103930285D01*
X149573952Y-103739809D01*
X149573952Y-103596952D01*
X149526333Y-103406476D01*
X149478714Y-103311238D01*
X149383476Y-103216000D01*
X149240619Y-103168380D01*
X149145380Y-103168380D01*
X149002523Y-103216000D01*
X148954904Y-103263619D01*
X148002523Y-104168380D02*
X148573952Y-104168380D01*
X148288238Y-104168380D02*
X148288238Y-103168380D01*
X148383476Y-103311238D01*
X148478714Y-103406476D01*
X148573952Y-103454095D01*
X147145380Y-103168380D02*
X147335857Y-103168380D01*
X147431095Y-103216000D01*
X147478714Y-103263619D01*
X147573952Y-103406476D01*
X147621571Y-103596952D01*
X147621571Y-103977904D01*
X147573952Y-104073142D01*
X147526333Y-104120761D01*
X147431095Y-104168380D01*
X147240619Y-104168380D01*
X147145380Y-104120761D01*
X147097761Y-104073142D01*
X147050142Y-103977904D01*
X147050142Y-103739809D01*
X147097761Y-103644571D01*
X147145380Y-103596952D01*
X147240619Y-103549333D01*
X147431095Y-103549333D01*
X147526333Y-103596952D01*
X147573952Y-103644571D01*
X147621571Y-103739809D01*
X146288238Y-103644571D02*
X146621571Y-103644571D01*
X146621571Y-104168380D02*
X146621571Y-103168380D01*
X146145380Y-103168380D01*
X145335857Y-103168380D02*
X145526333Y-103168380D01*
X145621571Y-103216000D01*
X145669190Y-103263619D01*
X145764428Y-103406476D01*
X145812047Y-103596952D01*
X145812047Y-103977904D01*
X145764428Y-104073142D01*
X145716809Y-104120761D01*
X145621571Y-104168380D01*
X145431095Y-104168380D01*
X145335857Y-104120761D01*
X145288238Y-104073142D01*
X145240619Y-103977904D01*
X145240619Y-103739809D01*
X145288238Y-103644571D01*
X145335857Y-103596952D01*
X145431095Y-103549333D01*
X145621571Y-103549333D01*
X145716809Y-103596952D01*
X145764428Y-103644571D01*
X145812047Y-103739809D01*
X144907285Y-103168380D02*
X144288238Y-103168380D01*
X144621571Y-103549333D01*
X144478714Y-103549333D01*
X144383476Y-103596952D01*
X144335857Y-103644571D01*
X144288238Y-103739809D01*
X144288238Y-103977904D01*
X144335857Y-104073142D01*
X144383476Y-104120761D01*
X144478714Y-104168380D01*
X144764428Y-104168380D01*
X144859666Y-104120761D01*
X144907285Y-104073142D01*
X143669190Y-103168380D02*
X143573952Y-103168380D01*
X143478714Y-103216000D01*
X143431095Y-103263619D01*
X143383476Y-103358857D01*
X143335857Y-103549333D01*
X143335857Y-103787428D01*
X143383476Y-103977904D01*
X143431095Y-104073142D01*
X143478714Y-104120761D01*
X143573952Y-104168380D01*
X143669190Y-104168380D01*
X143764428Y-104120761D01*
X143812047Y-104073142D01*
X143859666Y-103977904D01*
X143907285Y-103787428D01*
X143907285Y-103549333D01*
X143859666Y-103358857D01*
X143812047Y-103263619D01*
X143764428Y-103216000D01*
X143669190Y-103168380D01*
X149097761Y-104778380D02*
X148764428Y-105778380D01*
X148431095Y-104778380D01*
X146812047Y-105778380D02*
X147383476Y-105778380D01*
X147097761Y-105778380D02*
X147097761Y-104778380D01*
X147193000Y-104921238D01*
X147288238Y-105016476D01*
X147383476Y-105064095D01*
X146383476Y-105683142D02*
X146335857Y-105730761D01*
X146383476Y-105778380D01*
X146431095Y-105730761D01*
X146383476Y-105683142D01*
X146383476Y-105778380D01*
X145716809Y-104778380D02*
X145621571Y-104778380D01*
X145526333Y-104826000D01*
X145478714Y-104873619D01*
X145431095Y-104968857D01*
X145383476Y-105159333D01*
X145383476Y-105397428D01*
X145431095Y-105587904D01*
X145478714Y-105683142D01*
X145526333Y-105730761D01*
X145621571Y-105778380D01*
X145716809Y-105778380D01*
X145812047Y-105730761D01*
X145859666Y-105683142D01*
X145907285Y-105587904D01*
X145954904Y-105397428D01*
X145954904Y-105159333D01*
X145907285Y-104968857D01*
X145859666Y-104873619D01*
X145812047Y-104826000D01*
X145716809Y-104778380D01*
X156050142Y-106721714D02*
X156050142Y-107531238D01*
X156097761Y-107626476D01*
X156145380Y-107674095D01*
X156240619Y-107721714D01*
X156383476Y-107721714D01*
X156478714Y-107674095D01*
X156050142Y-107340761D02*
X156145380Y-107388380D01*
X156335857Y-107388380D01*
X156431095Y-107340761D01*
X156478714Y-107293142D01*
X156526333Y-107197904D01*
X156526333Y-106912190D01*
X156478714Y-106816952D01*
X156431095Y-106769333D01*
X156335857Y-106721714D01*
X156145380Y-106721714D01*
X156050142Y-106769333D01*
X155573952Y-107388380D02*
X155573952Y-106721714D01*
X155573952Y-106388380D02*
X155621571Y-106436000D01*
X155573952Y-106483619D01*
X155526333Y-106436000D01*
X155573952Y-106388380D01*
X155573952Y-106483619D01*
X155240619Y-106721714D02*
X154859666Y-106721714D01*
X155097761Y-106388380D02*
X155097761Y-107245523D01*
X155050142Y-107340761D01*
X154954904Y-107388380D01*
X154859666Y-107388380D01*
X154526333Y-107388380D02*
X154526333Y-106388380D01*
X154097761Y-107388380D02*
X154097761Y-106864571D01*
X154145380Y-106769333D01*
X154240619Y-106721714D01*
X154383476Y-106721714D01*
X154478714Y-106769333D01*
X154526333Y-106816952D01*
X153193000Y-106721714D02*
X153193000Y-107388380D01*
X153621571Y-106721714D02*
X153621571Y-107245523D01*
X153573952Y-107340761D01*
X153478714Y-107388380D01*
X153335857Y-107388380D01*
X153240619Y-107340761D01*
X153193000Y-107293142D01*
X152716809Y-107388380D02*
X152716809Y-106388380D01*
X152716809Y-106769333D02*
X152621571Y-106721714D01*
X152431095Y-106721714D01*
X152335857Y-106769333D01*
X152288238Y-106816952D01*
X152240619Y-106912190D01*
X152240619Y-107197904D01*
X152288238Y-107293142D01*
X152335857Y-107340761D01*
X152431095Y-107388380D01*
X152621571Y-107388380D01*
X152716809Y-107340761D01*
X151812047Y-107293142D02*
X151764428Y-107340761D01*
X151812047Y-107388380D01*
X151859666Y-107340761D01*
X151812047Y-107293142D01*
X151812047Y-107388380D01*
X150907285Y-107340761D02*
X151002523Y-107388380D01*
X151193000Y-107388380D01*
X151288238Y-107340761D01*
X151335857Y-107293142D01*
X151383476Y-107197904D01*
X151383476Y-106912190D01*
X151335857Y-106816952D01*
X151288238Y-106769333D01*
X151193000Y-106721714D01*
X151002523Y-106721714D01*
X150907285Y-106769333D01*
X150335857Y-107388380D02*
X150431095Y-107340761D01*
X150478714Y-107293142D01*
X150526333Y-107197904D01*
X150526333Y-106912190D01*
X150478714Y-106816952D01*
X150431095Y-106769333D01*
X150335857Y-106721714D01*
X150193000Y-106721714D01*
X150097761Y-106769333D01*
X150050142Y-106816952D01*
X150002523Y-106912190D01*
X150002523Y-107197904D01*
X150050142Y-107293142D01*
X150097761Y-107340761D01*
X150193000Y-107388380D01*
X150335857Y-107388380D01*
X149573952Y-107388380D02*
X149573952Y-106721714D01*
X149573952Y-106816952D02*
X149526333Y-106769333D01*
X149431095Y-106721714D01*
X149288238Y-106721714D01*
X149193000Y-106769333D01*
X149145380Y-106864571D01*
X149145380Y-107388380D01*
X149145380Y-106864571D02*
X149097761Y-106769333D01*
X149002523Y-106721714D01*
X148859666Y-106721714D01*
X148764428Y-106769333D01*
X148716809Y-106864571D01*
X148716809Y-107388380D01*
X147526333Y-106340761D02*
X148383476Y-107626476D01*
X147240619Y-107340761D02*
X147145380Y-107388380D01*
X146954904Y-107388380D01*
X146859666Y-107340761D01*
X146812047Y-107245523D01*
X146812047Y-107197904D01*
X146859666Y-107102666D01*
X146954904Y-107055047D01*
X147097761Y-107055047D01*
X147193000Y-107007428D01*
X147240619Y-106912190D01*
X147240619Y-106864571D01*
X147193000Y-106769333D01*
X147097761Y-106721714D01*
X146954904Y-106721714D01*
X146859666Y-106769333D01*
X145954904Y-107340761D02*
X146050142Y-107388380D01*
X146240619Y-107388380D01*
X146335857Y-107340761D01*
X146383476Y-107293142D01*
X146431095Y-107197904D01*
X146431095Y-106912190D01*
X146383476Y-106816952D01*
X146335857Y-106769333D01*
X146240619Y-106721714D01*
X146050142Y-106721714D01*
X145954904Y-106769333D01*
X145526333Y-107388380D02*
X145526333Y-106721714D01*
X145526333Y-106912190D02*
X145478714Y-106816952D01*
X145431095Y-106769333D01*
X145335857Y-106721714D01*
X145240619Y-106721714D01*
X144526333Y-107340761D02*
X144621571Y-107388380D01*
X144812047Y-107388380D01*
X144907285Y-107340761D01*
X144954904Y-107245523D01*
X144954904Y-106864571D01*
X144907285Y-106769333D01*
X144812047Y-106721714D01*
X144621571Y-106721714D01*
X144526333Y-106769333D01*
X144478714Y-106864571D01*
X144478714Y-106959809D01*
X144954904Y-107055047D01*
X144145380Y-106721714D02*
X143954904Y-107388380D01*
X143764428Y-106912190D01*
X143573952Y-107388380D01*
X143383476Y-106721714D01*
X143002523Y-107388380D02*
X143002523Y-106388380D01*
X143002523Y-106769333D02*
X142907285Y-106721714D01*
X142716809Y-106721714D01*
X142621571Y-106769333D01*
X142573952Y-106816952D01*
X142526333Y-106912190D01*
X142526333Y-107197904D01*
X142573952Y-107293142D01*
X142621571Y-107340761D01*
X142716809Y-107388380D01*
X142907285Y-107388380D01*
X143002523Y-107340761D01*
X142097761Y-107388380D02*
X142097761Y-106721714D01*
X142097761Y-106912190D02*
X142050142Y-106816952D01*
X142002523Y-106769333D01*
X141907285Y-106721714D01*
X141812047Y-106721714D01*
X141097761Y-107340761D02*
X141193000Y-107388380D01*
X141383476Y-107388380D01*
X141478714Y-107340761D01*
X141526333Y-107245523D01*
X141526333Y-106864571D01*
X141478714Y-106769333D01*
X141383476Y-106721714D01*
X141193000Y-106721714D01*
X141097761Y-106769333D01*
X141050142Y-106864571D01*
X141050142Y-106959809D01*
X141526333Y-107055047D01*
X140193000Y-107388380D02*
X140193000Y-106864571D01*
X140240619Y-106769333D01*
X140335857Y-106721714D01*
X140526333Y-106721714D01*
X140621571Y-106769333D01*
X140193000Y-107340761D02*
X140288238Y-107388380D01*
X140526333Y-107388380D01*
X140621571Y-107340761D01*
X140669190Y-107245523D01*
X140669190Y-107150285D01*
X140621571Y-107055047D01*
X140526333Y-107007428D01*
X140288238Y-107007428D01*
X140193000Y-106959809D01*
X139716809Y-107388380D02*
X139716809Y-106388380D01*
X139621571Y-107007428D02*
X139335857Y-107388380D01*
X139335857Y-106721714D02*
X139716809Y-107102666D01*
X138526333Y-107340761D02*
X138621571Y-107388380D01*
X138812047Y-107388380D01*
X138907285Y-107340761D01*
X138954904Y-107245523D01*
X138954904Y-106864571D01*
X138907285Y-106769333D01*
X138812047Y-106721714D01*
X138621571Y-106721714D01*
X138526333Y-106769333D01*
X138478714Y-106864571D01*
X138478714Y-106959809D01*
X138954904Y-107055047D01*
X138050142Y-107388380D02*
X138050142Y-106721714D01*
X138050142Y-106912190D02*
X138002523Y-106816952D01*
X137954904Y-106769333D01*
X137859666Y-106721714D01*
X137764428Y-106721714D01*
%TO.C,V2*%
G36*
X143299721Y-100763049D02*
G01*
X143216442Y-100763049D01*
X143216442Y-100590745D01*
X143216055Y-100528635D01*
X143213736Y-100469167D01*
X143208303Y-100430706D01*
X143198610Y-100406210D01*
X143183508Y-100388636D01*
X143144935Y-100367754D01*
X143091925Y-100368347D01*
X143065424Y-100371538D01*
X143034265Y-100366367D01*
X143014878Y-100343486D01*
X143005120Y-100313799D01*
X143019018Y-100294825D01*
X143026884Y-100290639D01*
X143075463Y-100280902D01*
X143131138Y-100285890D01*
X143175784Y-100304486D01*
X143204885Y-100323626D01*
X143224382Y-100326591D01*
X143222466Y-100305016D01*
X143221866Y-100303367D01*
X143225354Y-100285314D01*
X143256300Y-100280032D01*
X143299721Y-100280032D01*
X143299721Y-100763049D01*
G37*
D11*
X143299721Y-100763049D02*
X143216442Y-100763049D01*
X143216442Y-100590745D01*
X143216055Y-100528635D01*
X143213736Y-100469167D01*
X143208303Y-100430706D01*
X143198610Y-100406210D01*
X143183508Y-100388636D01*
X143144935Y-100367754D01*
X143091925Y-100368347D01*
X143065424Y-100371538D01*
X143034265Y-100366367D01*
X143014878Y-100343486D01*
X143005120Y-100313799D01*
X143019018Y-100294825D01*
X143026884Y-100290639D01*
X143075463Y-100280902D01*
X143131138Y-100285890D01*
X143175784Y-100304486D01*
X143204885Y-100323626D01*
X143224382Y-100326591D01*
X143222466Y-100305016D01*
X143221866Y-100303367D01*
X143225354Y-100285314D01*
X143256300Y-100280032D01*
X143299721Y-100280032D01*
X143299721Y-100763049D01*
G36*
X144970235Y-100676952D02*
G01*
X144943557Y-100725573D01*
X144928860Y-100739514D01*
X144890286Y-100757889D01*
X144832477Y-100763049D01*
X144810369Y-100762238D01*
X144762583Y-100754841D01*
X144733364Y-100742229D01*
X144714783Y-100729762D01*
X144703661Y-100742229D01*
X144685465Y-100756506D01*
X144648691Y-100763049D01*
X144601356Y-100763049D01*
X144600126Y-100530434D01*
X144698803Y-100530434D01*
X144700592Y-100577789D01*
X144710848Y-100625857D01*
X144732763Y-100659974D01*
X144769493Y-100688130D01*
X144816217Y-100692642D01*
X144867679Y-100664586D01*
X144878864Y-100654734D01*
X144896642Y-100629412D01*
X144904947Y-100592453D01*
X144907000Y-100533089D01*
X144904247Y-100481786D01*
X144886188Y-100415272D01*
X144850697Y-100376128D01*
X144797101Y-100363311D01*
X144772398Y-100366223D01*
X144731289Y-100392702D01*
X144706869Y-100447249D01*
X144698803Y-100530434D01*
X144600126Y-100530434D01*
X144597744Y-100080163D01*
X144698803Y-100080163D01*
X144698803Y-100333831D01*
X144739856Y-100306932D01*
X144752545Y-100299615D01*
X144814022Y-100282262D01*
X144878669Y-100285725D01*
X144931724Y-100309784D01*
X144945939Y-100325088D01*
X144970919Y-100378180D01*
X144986110Y-100449448D01*
X144991240Y-100529355D01*
X144990994Y-100533089D01*
X144986039Y-100608368D01*
X144970235Y-100676952D01*
G37*
X144970235Y-100676952D02*
X144943557Y-100725573D01*
X144928860Y-100739514D01*
X144890286Y-100757889D01*
X144832477Y-100763049D01*
X144810369Y-100762238D01*
X144762583Y-100754841D01*
X144733364Y-100742229D01*
X144714783Y-100729762D01*
X144703661Y-100742229D01*
X144685465Y-100756506D01*
X144648691Y-100763049D01*
X144601356Y-100763049D01*
X144600126Y-100530434D01*
X144698803Y-100530434D01*
X144700592Y-100577789D01*
X144710848Y-100625857D01*
X144732763Y-100659974D01*
X144769493Y-100688130D01*
X144816217Y-100692642D01*
X144867679Y-100664586D01*
X144878864Y-100654734D01*
X144896642Y-100629412D01*
X144904947Y-100592453D01*
X144907000Y-100533089D01*
X144904247Y-100481786D01*
X144886188Y-100415272D01*
X144850697Y-100376128D01*
X144797101Y-100363311D01*
X144772398Y-100366223D01*
X144731289Y-100392702D01*
X144706869Y-100447249D01*
X144698803Y-100530434D01*
X144600126Y-100530434D01*
X144597744Y-100080163D01*
X144698803Y-100080163D01*
X144698803Y-100333831D01*
X144739856Y-100306932D01*
X144752545Y-100299615D01*
X144814022Y-100282262D01*
X144878669Y-100285725D01*
X144931724Y-100309784D01*
X144945939Y-100325088D01*
X144970919Y-100378180D01*
X144986110Y-100449448D01*
X144991240Y-100529355D01*
X144990994Y-100533089D01*
X144986039Y-100608368D01*
X144970235Y-100676952D01*
G36*
X145670314Y-96986981D02*
G01*
X145690774Y-97037174D01*
X145727706Y-97124287D01*
X145756797Y-97186268D01*
X145780352Y-97227378D01*
X145800671Y-97251875D01*
X145820058Y-97264019D01*
X145835813Y-97268657D01*
X145882890Y-97279309D01*
X145948294Y-97292085D01*
X146022934Y-97305143D01*
X146067677Y-97312590D01*
X146140277Y-97324924D01*
X146199380Y-97335272D01*
X146235295Y-97341954D01*
X146281098Y-97351269D01*
X146281098Y-97598000D01*
X146281071Y-97604328D01*
X146280838Y-97660550D01*
X146278995Y-97746870D01*
X146275142Y-97805319D01*
X146268997Y-97839348D01*
X146260279Y-97852407D01*
X146259334Y-97852728D01*
X146232974Y-97859049D01*
X146181506Y-97869767D01*
X146111934Y-97883463D01*
X146031262Y-97898722D01*
X146023459Y-97900180D01*
X145943577Y-97916272D01*
X145875585Y-97931975D01*
X145826465Y-97945557D01*
X145803202Y-97955287D01*
X145794029Y-97969668D01*
X145774564Y-98009778D01*
X145749301Y-98067056D01*
X145721444Y-98133637D01*
X145694199Y-98201655D01*
X145670770Y-98263247D01*
X145654362Y-98310547D01*
X145648180Y-98335692D01*
X145649288Y-98339175D01*
X145664063Y-98365612D01*
X145693358Y-98412148D01*
X145733750Y-98473443D01*
X145781816Y-98544155D01*
X145915451Y-98738026D01*
X145758695Y-98895317D01*
X145744638Y-98909423D01*
X145719042Y-98934917D01*
X145659789Y-98992431D01*
X145609951Y-99038727D01*
X145574141Y-99069594D01*
X145556969Y-99080819D01*
X145554209Y-99080127D01*
X145528484Y-99066605D01*
X145482463Y-99038448D01*
X145421678Y-98999122D01*
X145351660Y-98952096D01*
X145166433Y-98825577D01*
X145400074Y-98825577D01*
X145428149Y-98880756D01*
X145428374Y-98881032D01*
X145465211Y-98905682D01*
X145520737Y-98922382D01*
X145580869Y-98928358D01*
X145631524Y-98920834D01*
X145642784Y-98916776D01*
X145677027Y-98905252D01*
X145688062Y-98895317D01*
X145683990Y-98862236D01*
X145672145Y-98841617D01*
X145645840Y-98828379D01*
X145596848Y-98824122D01*
X145576515Y-98823091D01*
X145535414Y-98816416D01*
X145515456Y-98806000D01*
X145518422Y-98796825D01*
X145543316Y-98775942D01*
X145585836Y-98752223D01*
X145598384Y-98746039D01*
X145651088Y-98710773D01*
X145674563Y-98673108D01*
X145678054Y-98608646D01*
X145653622Y-98558160D01*
X145603350Y-98525884D01*
X145529711Y-98514524D01*
X145523467Y-98514590D01*
X145465472Y-98523762D01*
X145431980Y-98546721D01*
X145426794Y-98581010D01*
X145435052Y-98599209D01*
X145457539Y-98610122D01*
X145502612Y-98610376D01*
X145519651Y-98609724D01*
X145563281Y-98615149D01*
X145576263Y-98630653D01*
X145558318Y-98653257D01*
X145509165Y-98679985D01*
X145502644Y-98682859D01*
X145438608Y-98723440D01*
X145403989Y-98772076D01*
X145400074Y-98825577D01*
X145166433Y-98825577D01*
X145163206Y-98823373D01*
X145072740Y-98872310D01*
X145037336Y-98890155D01*
X144990849Y-98907163D01*
X144966977Y-98905262D01*
X144959362Y-98891516D01*
X144940200Y-98850145D01*
X144911933Y-98785795D01*
X144876431Y-98702797D01*
X144835566Y-98605484D01*
X144791208Y-98498190D01*
X144630736Y-98107101D01*
X144677261Y-98073492D01*
X144730881Y-98032236D01*
X144823642Y-97942243D01*
X144891086Y-97845023D01*
X144902755Y-97823289D01*
X144922385Y-97779806D01*
X144933603Y-97736709D01*
X144938714Y-97682776D01*
X144940022Y-97606786D01*
X144939457Y-97567813D01*
X144935626Y-97532220D01*
X145898016Y-97532220D01*
X145898518Y-97547355D01*
X145916174Y-97610049D01*
X145959745Y-97652323D01*
X146030141Y-97675162D01*
X146041179Y-97676988D01*
X146078458Y-97687113D01*
X146095004Y-97706730D01*
X146101162Y-97746183D01*
X146103384Y-97765481D01*
X146115417Y-97799079D01*
X146140210Y-97811522D01*
X146161557Y-97812188D01*
X146186013Y-97804582D01*
X146190205Y-97788050D01*
X146194152Y-97744188D01*
X146196832Y-97680549D01*
X146197820Y-97604328D01*
X146197698Y-97535290D01*
X146196507Y-97476744D01*
X146192953Y-97440503D01*
X146185742Y-97420523D01*
X146173580Y-97410762D01*
X146155174Y-97405177D01*
X146137118Y-97401783D01*
X146068320Y-97401372D01*
X145996385Y-97414742D01*
X145939021Y-97439113D01*
X145923686Y-97450717D01*
X145903437Y-97482201D01*
X145898016Y-97532220D01*
X144935626Y-97532220D01*
X144928065Y-97461967D01*
X144898832Y-97374320D01*
X144847561Y-97295188D01*
X144770050Y-97214890D01*
X144697201Y-97156813D01*
X144606156Y-97110025D01*
X144504854Y-97087301D01*
X144384453Y-97085678D01*
X144327048Y-97090956D01*
X144227646Y-97113551D01*
X144142963Y-97155810D01*
X144062260Y-97222285D01*
X143991486Y-97303671D01*
X143928644Y-97415200D01*
X143896355Y-97532106D01*
X143895005Y-97605716D01*
X143894174Y-97651080D01*
X143921657Y-97768813D01*
X143978360Y-97881996D01*
X144063838Y-97987320D01*
X144177646Y-98081475D01*
X144214157Y-98106459D01*
X144089299Y-98406262D01*
X144076567Y-98436864D01*
X144020207Y-98572854D01*
X143975035Y-98681549D01*
X143971163Y-98690636D01*
X143939212Y-98765621D01*
X143910899Y-98827741D01*
X143888257Y-98870582D01*
X143869449Y-98896817D01*
X143852635Y-98909118D01*
X143835976Y-98910156D01*
X143817634Y-98902605D01*
X143795770Y-98889136D01*
X143768546Y-98872422D01*
X143742815Y-98858166D01*
X143703984Y-98838641D01*
X143683116Y-98830983D01*
X143681317Y-98831446D01*
X143658102Y-98844063D01*
X143614180Y-98871334D01*
X143555044Y-98909774D01*
X143486186Y-98955901D01*
X143470403Y-98966583D01*
X143403083Y-99011329D01*
X143346585Y-99047609D01*
X143306438Y-99071935D01*
X143288171Y-99080819D01*
X143283906Y-99078726D01*
X143259248Y-99058674D01*
X143217720Y-99020776D01*
X143163830Y-98969217D01*
X143102092Y-98908182D01*
X143067096Y-98873066D01*
X143170622Y-98873066D01*
X143180028Y-98901165D01*
X143187797Y-98907012D01*
X143229265Y-98920185D01*
X143286298Y-98924748D01*
X143346160Y-98920373D01*
X143396115Y-98906731D01*
X143421517Y-98891891D01*
X143466879Y-98840303D01*
X143491510Y-98770608D01*
X143491938Y-98690636D01*
X143477335Y-98635279D01*
X143435676Y-98569568D01*
X143372737Y-98528629D01*
X143290871Y-98514524D01*
X143250253Y-98516981D01*
X143199573Y-98531770D01*
X143175502Y-98558087D01*
X143180991Y-98593804D01*
X143188771Y-98606538D01*
X143210580Y-98620751D01*
X143247857Y-98615003D01*
X143276281Y-98609126D01*
X143329402Y-98615985D01*
X143364342Y-98650531D01*
X143379854Y-98711850D01*
X143379539Y-98766923D01*
X143363475Y-98808095D01*
X143326173Y-98826644D01*
X143263228Y-98826914D01*
X143252712Y-98825948D01*
X143207900Y-98824538D01*
X143184671Y-98832271D01*
X143173485Y-98851793D01*
X143170622Y-98873066D01*
X143067096Y-98873066D01*
X142930042Y-98735544D01*
X143066674Y-98535984D01*
X143203305Y-98336423D01*
X143134237Y-98163019D01*
X143109954Y-98102794D01*
X143083413Y-98038767D01*
X143062815Y-97991098D01*
X143051264Y-97967116D01*
X143030737Y-97955400D01*
X142984030Y-97939735D01*
X142918042Y-97922263D01*
X142839589Y-97904984D01*
X142762363Y-97889409D01*
X142690310Y-97874685D01*
X142634979Y-97863169D01*
X142604344Y-97856506D01*
X142595680Y-97854215D01*
X142583741Y-97847715D01*
X142575660Y-97833714D01*
X142570685Y-97807051D01*
X142568063Y-97762563D01*
X142567042Y-97695089D01*
X142567033Y-97689975D01*
X142649151Y-97689975D01*
X142662147Y-97739164D01*
X142693821Y-97776208D01*
X142727039Y-97790177D01*
X142783909Y-97802957D01*
X142848026Y-97810650D01*
X142906338Y-97811773D01*
X142945787Y-97804842D01*
X142953894Y-97794067D01*
X142961182Y-97759114D01*
X142965307Y-97697408D01*
X142966606Y-97605716D01*
X142966477Y-97534660D01*
X142965262Y-97476391D01*
X142961684Y-97440326D01*
X142954463Y-97420449D01*
X142942320Y-97410739D01*
X142923976Y-97405180D01*
X142867948Y-97399166D01*
X142801771Y-97404325D01*
X142741019Y-97418944D01*
X142699439Y-97440841D01*
X142691270Y-97449572D01*
X142671181Y-97492154D01*
X142668232Y-97539379D01*
X142684165Y-97575846D01*
X142691571Y-97590501D01*
X142675837Y-97614528D01*
X142656311Y-97641905D01*
X142649151Y-97689975D01*
X142567033Y-97689975D01*
X142566869Y-97599465D01*
X142566869Y-97351269D01*
X142612672Y-97342363D01*
X142643585Y-97336509D01*
X142700707Y-97325871D01*
X142774344Y-97312260D01*
X142856074Y-97297237D01*
X143053672Y-97261017D01*
X143086714Y-97184065D01*
X143107692Y-97135861D01*
X143138434Y-97066331D01*
X143169284Y-96997467D01*
X143218812Y-96887820D01*
X143076053Y-96682164D01*
X143050987Y-96645902D01*
X143004469Y-96577714D01*
X142967138Y-96521787D01*
X142957633Y-96506987D01*
X143133164Y-96506987D01*
X143140966Y-96585512D01*
X143167768Y-96645533D01*
X143216268Y-96687968D01*
X143219587Y-96689849D01*
X143281948Y-96709198D01*
X143373606Y-96715704D01*
X143483991Y-96715704D01*
X143479299Y-96520000D01*
X143474606Y-96324295D01*
X143352473Y-96324295D01*
X143320641Y-96324411D01*
X143268163Y-96326656D01*
X143234306Y-96334290D01*
X143208894Y-96350553D01*
X143181752Y-96378689D01*
X143164395Y-96399660D01*
X143139735Y-96447343D01*
X143133164Y-96506987D01*
X142957633Y-96506987D01*
X142942308Y-96483123D01*
X142933295Y-96466727D01*
X142935670Y-96462750D01*
X142956248Y-96439016D01*
X142994541Y-96398260D01*
X143046404Y-96344848D01*
X143107690Y-96283144D01*
X143282085Y-96109343D01*
X143495519Y-96254895D01*
X143708953Y-96400448D01*
X143816632Y-96359596D01*
X143871716Y-96338140D01*
X143942216Y-96309424D01*
X143998772Y-96285068D01*
X144073233Y-96251392D01*
X144073643Y-96249344D01*
X144197393Y-96249344D01*
X144248229Y-96249344D01*
X144253178Y-96249324D01*
X144284128Y-96245420D01*
X144297311Y-96227883D01*
X144301036Y-96186885D01*
X144301118Y-96184485D01*
X144305676Y-96127170D01*
X144313528Y-96076033D01*
X144319869Y-96051015D01*
X144326639Y-96045870D01*
X144337095Y-96065604D01*
X144354869Y-96113508D01*
X144355148Y-96114283D01*
X144376853Y-96166110D01*
X144397327Y-96192198D01*
X144421903Y-96199377D01*
X144425106Y-96199276D01*
X144449427Y-96189492D01*
X144473376Y-96159568D01*
X144501876Y-96103606D01*
X144545635Y-96007836D01*
X144548901Y-96249344D01*
X144653127Y-96249344D01*
X144641707Y-96078622D01*
X144640604Y-96062232D01*
X144634214Y-95975765D01*
X144627690Y-95916589D01*
X144619333Y-95879544D01*
X144607443Y-95859472D01*
X144590322Y-95851213D01*
X144566269Y-95849606D01*
X144534928Y-95854608D01*
X144510796Y-95875531D01*
X144486286Y-95920393D01*
X144477755Y-95939110D01*
X144455759Y-95990901D01*
X144441223Y-96030126D01*
X144439918Y-96034156D01*
X144432107Y-96048042D01*
X144421481Y-96042752D01*
X144404631Y-96014459D01*
X144378149Y-95959339D01*
X144376851Y-95956549D01*
X144348994Y-95900026D01*
X144327508Y-95867688D01*
X144306620Y-95853045D01*
X144280558Y-95849606D01*
X144269259Y-95849879D01*
X144250919Y-95853934D01*
X144237672Y-95866751D01*
X144228107Y-95893228D01*
X144220813Y-95938264D01*
X144214379Y-96006758D01*
X144207394Y-96103606D01*
X144197393Y-96249344D01*
X144073643Y-96249344D01*
X144123690Y-95999417D01*
X144133921Y-95949585D01*
X144151507Y-95869659D01*
X144167084Y-95805812D01*
X144179259Y-95763594D01*
X144186639Y-95748556D01*
X144190659Y-95748711D01*
X144221785Y-95749089D01*
X144277561Y-95749394D01*
X144351680Y-95749598D01*
X144437833Y-95749672D01*
X144676535Y-95749672D01*
X144714997Y-95978688D01*
X144719145Y-96003075D01*
X144734101Y-96086314D01*
X144748042Y-96157264D01*
X144759565Y-96209055D01*
X144767268Y-96234818D01*
X144783476Y-96249344D01*
X144784646Y-96250393D01*
X144826641Y-96274333D01*
X144884952Y-96302027D01*
X144951882Y-96330391D01*
X145019734Y-96356343D01*
X145080809Y-96376797D01*
X145127410Y-96388671D01*
X145151839Y-96388880D01*
X145154685Y-96387062D01*
X145181616Y-96368990D01*
X145228767Y-96336802D01*
X145290394Y-96294431D01*
X145360756Y-96245809D01*
X145380436Y-96232226D01*
X145447592Y-96186651D01*
X145503646Y-96149780D01*
X145543217Y-96125099D01*
X145560923Y-96116098D01*
X145564967Y-96118159D01*
X145589175Y-96138131D01*
X145630324Y-96175947D01*
X145683929Y-96227420D01*
X145745505Y-96288365D01*
X145917186Y-96460632D01*
X145772833Y-96672068D01*
X145743041Y-96715704D01*
X145628479Y-96883503D01*
X145670314Y-96986981D01*
G37*
X145670314Y-96986981D02*
X145690774Y-97037174D01*
X145727706Y-97124287D01*
X145756797Y-97186268D01*
X145780352Y-97227378D01*
X145800671Y-97251875D01*
X145820058Y-97264019D01*
X145835813Y-97268657D01*
X145882890Y-97279309D01*
X145948294Y-97292085D01*
X146022934Y-97305143D01*
X146067677Y-97312590D01*
X146140277Y-97324924D01*
X146199380Y-97335272D01*
X146235295Y-97341954D01*
X146281098Y-97351269D01*
X146281098Y-97598000D01*
X146281071Y-97604328D01*
X146280838Y-97660550D01*
X146278995Y-97746870D01*
X146275142Y-97805319D01*
X146268997Y-97839348D01*
X146260279Y-97852407D01*
X146259334Y-97852728D01*
X146232974Y-97859049D01*
X146181506Y-97869767D01*
X146111934Y-97883463D01*
X146031262Y-97898722D01*
X146023459Y-97900180D01*
X145943577Y-97916272D01*
X145875585Y-97931975D01*
X145826465Y-97945557D01*
X145803202Y-97955287D01*
X145794029Y-97969668D01*
X145774564Y-98009778D01*
X145749301Y-98067056D01*
X145721444Y-98133637D01*
X145694199Y-98201655D01*
X145670770Y-98263247D01*
X145654362Y-98310547D01*
X145648180Y-98335692D01*
X145649288Y-98339175D01*
X145664063Y-98365612D01*
X145693358Y-98412148D01*
X145733750Y-98473443D01*
X145781816Y-98544155D01*
X145915451Y-98738026D01*
X145758695Y-98895317D01*
X145744638Y-98909423D01*
X145719042Y-98934917D01*
X145659789Y-98992431D01*
X145609951Y-99038727D01*
X145574141Y-99069594D01*
X145556969Y-99080819D01*
X145554209Y-99080127D01*
X145528484Y-99066605D01*
X145482463Y-99038448D01*
X145421678Y-98999122D01*
X145351660Y-98952096D01*
X145166433Y-98825577D01*
X145400074Y-98825577D01*
X145428149Y-98880756D01*
X145428374Y-98881032D01*
X145465211Y-98905682D01*
X145520737Y-98922382D01*
X145580869Y-98928358D01*
X145631524Y-98920834D01*
X145642784Y-98916776D01*
X145677027Y-98905252D01*
X145688062Y-98895317D01*
X145683990Y-98862236D01*
X145672145Y-98841617D01*
X145645840Y-98828379D01*
X145596848Y-98824122D01*
X145576515Y-98823091D01*
X145535414Y-98816416D01*
X145515456Y-98806000D01*
X145518422Y-98796825D01*
X145543316Y-98775942D01*
X145585836Y-98752223D01*
X145598384Y-98746039D01*
X145651088Y-98710773D01*
X145674563Y-98673108D01*
X145678054Y-98608646D01*
X145653622Y-98558160D01*
X145603350Y-98525884D01*
X145529711Y-98514524D01*
X145523467Y-98514590D01*
X145465472Y-98523762D01*
X145431980Y-98546721D01*
X145426794Y-98581010D01*
X145435052Y-98599209D01*
X145457539Y-98610122D01*
X145502612Y-98610376D01*
X145519651Y-98609724D01*
X145563281Y-98615149D01*
X145576263Y-98630653D01*
X145558318Y-98653257D01*
X145509165Y-98679985D01*
X145502644Y-98682859D01*
X145438608Y-98723440D01*
X145403989Y-98772076D01*
X145400074Y-98825577D01*
X145166433Y-98825577D01*
X145163206Y-98823373D01*
X145072740Y-98872310D01*
X145037336Y-98890155D01*
X144990849Y-98907163D01*
X144966977Y-98905262D01*
X144959362Y-98891516D01*
X144940200Y-98850145D01*
X144911933Y-98785795D01*
X144876431Y-98702797D01*
X144835566Y-98605484D01*
X144791208Y-98498190D01*
X144630736Y-98107101D01*
X144677261Y-98073492D01*
X144730881Y-98032236D01*
X144823642Y-97942243D01*
X144891086Y-97845023D01*
X144902755Y-97823289D01*
X144922385Y-97779806D01*
X144933603Y-97736709D01*
X144938714Y-97682776D01*
X144940022Y-97606786D01*
X144939457Y-97567813D01*
X144935626Y-97532220D01*
X145898016Y-97532220D01*
X145898518Y-97547355D01*
X145916174Y-97610049D01*
X145959745Y-97652323D01*
X146030141Y-97675162D01*
X146041179Y-97676988D01*
X146078458Y-97687113D01*
X146095004Y-97706730D01*
X146101162Y-97746183D01*
X146103384Y-97765481D01*
X146115417Y-97799079D01*
X146140210Y-97811522D01*
X146161557Y-97812188D01*
X146186013Y-97804582D01*
X146190205Y-97788050D01*
X146194152Y-97744188D01*
X146196832Y-97680549D01*
X146197820Y-97604328D01*
X146197698Y-97535290D01*
X146196507Y-97476744D01*
X146192953Y-97440503D01*
X146185742Y-97420523D01*
X146173580Y-97410762D01*
X146155174Y-97405177D01*
X146137118Y-97401783D01*
X146068320Y-97401372D01*
X145996385Y-97414742D01*
X145939021Y-97439113D01*
X145923686Y-97450717D01*
X145903437Y-97482201D01*
X145898016Y-97532220D01*
X144935626Y-97532220D01*
X144928065Y-97461967D01*
X144898832Y-97374320D01*
X144847561Y-97295188D01*
X144770050Y-97214890D01*
X144697201Y-97156813D01*
X144606156Y-97110025D01*
X144504854Y-97087301D01*
X144384453Y-97085678D01*
X144327048Y-97090956D01*
X144227646Y-97113551D01*
X144142963Y-97155810D01*
X144062260Y-97222285D01*
X143991486Y-97303671D01*
X143928644Y-97415200D01*
X143896355Y-97532106D01*
X143895005Y-97605716D01*
X143894174Y-97651080D01*
X143921657Y-97768813D01*
X143978360Y-97881996D01*
X144063838Y-97987320D01*
X144177646Y-98081475D01*
X144214157Y-98106459D01*
X144089299Y-98406262D01*
X144076567Y-98436864D01*
X144020207Y-98572854D01*
X143975035Y-98681549D01*
X143971163Y-98690636D01*
X143939212Y-98765621D01*
X143910899Y-98827741D01*
X143888257Y-98870582D01*
X143869449Y-98896817D01*
X143852635Y-98909118D01*
X143835976Y-98910156D01*
X143817634Y-98902605D01*
X143795770Y-98889136D01*
X143768546Y-98872422D01*
X143742815Y-98858166D01*
X143703984Y-98838641D01*
X143683116Y-98830983D01*
X143681317Y-98831446D01*
X143658102Y-98844063D01*
X143614180Y-98871334D01*
X143555044Y-98909774D01*
X143486186Y-98955901D01*
X143470403Y-98966583D01*
X143403083Y-99011329D01*
X143346585Y-99047609D01*
X143306438Y-99071935D01*
X143288171Y-99080819D01*
X143283906Y-99078726D01*
X143259248Y-99058674D01*
X143217720Y-99020776D01*
X143163830Y-98969217D01*
X143102092Y-98908182D01*
X143067096Y-98873066D01*
X143170622Y-98873066D01*
X143180028Y-98901165D01*
X143187797Y-98907012D01*
X143229265Y-98920185D01*
X143286298Y-98924748D01*
X143346160Y-98920373D01*
X143396115Y-98906731D01*
X143421517Y-98891891D01*
X143466879Y-98840303D01*
X143491510Y-98770608D01*
X143491938Y-98690636D01*
X143477335Y-98635279D01*
X143435676Y-98569568D01*
X143372737Y-98528629D01*
X143290871Y-98514524D01*
X143250253Y-98516981D01*
X143199573Y-98531770D01*
X143175502Y-98558087D01*
X143180991Y-98593804D01*
X143188771Y-98606538D01*
X143210580Y-98620751D01*
X143247857Y-98615003D01*
X143276281Y-98609126D01*
X143329402Y-98615985D01*
X143364342Y-98650531D01*
X143379854Y-98711850D01*
X143379539Y-98766923D01*
X143363475Y-98808095D01*
X143326173Y-98826644D01*
X143263228Y-98826914D01*
X143252712Y-98825948D01*
X143207900Y-98824538D01*
X143184671Y-98832271D01*
X143173485Y-98851793D01*
X143170622Y-98873066D01*
X143067096Y-98873066D01*
X142930042Y-98735544D01*
X143066674Y-98535984D01*
X143203305Y-98336423D01*
X143134237Y-98163019D01*
X143109954Y-98102794D01*
X143083413Y-98038767D01*
X143062815Y-97991098D01*
X143051264Y-97967116D01*
X143030737Y-97955400D01*
X142984030Y-97939735D01*
X142918042Y-97922263D01*
X142839589Y-97904984D01*
X142762363Y-97889409D01*
X142690310Y-97874685D01*
X142634979Y-97863169D01*
X142604344Y-97856506D01*
X142595680Y-97854215D01*
X142583741Y-97847715D01*
X142575660Y-97833714D01*
X142570685Y-97807051D01*
X142568063Y-97762563D01*
X142567042Y-97695089D01*
X142567033Y-97689975D01*
X142649151Y-97689975D01*
X142662147Y-97739164D01*
X142693821Y-97776208D01*
X142727039Y-97790177D01*
X142783909Y-97802957D01*
X142848026Y-97810650D01*
X142906338Y-97811773D01*
X142945787Y-97804842D01*
X142953894Y-97794067D01*
X142961182Y-97759114D01*
X142965307Y-97697408D01*
X142966606Y-97605716D01*
X142966477Y-97534660D01*
X142965262Y-97476391D01*
X142961684Y-97440326D01*
X142954463Y-97420449D01*
X142942320Y-97410739D01*
X142923976Y-97405180D01*
X142867948Y-97399166D01*
X142801771Y-97404325D01*
X142741019Y-97418944D01*
X142699439Y-97440841D01*
X142691270Y-97449572D01*
X142671181Y-97492154D01*
X142668232Y-97539379D01*
X142684165Y-97575846D01*
X142691571Y-97590501D01*
X142675837Y-97614528D01*
X142656311Y-97641905D01*
X142649151Y-97689975D01*
X142567033Y-97689975D01*
X142566869Y-97599465D01*
X142566869Y-97351269D01*
X142612672Y-97342363D01*
X142643585Y-97336509D01*
X142700707Y-97325871D01*
X142774344Y-97312260D01*
X142856074Y-97297237D01*
X143053672Y-97261017D01*
X143086714Y-97184065D01*
X143107692Y-97135861D01*
X143138434Y-97066331D01*
X143169284Y-96997467D01*
X143218812Y-96887820D01*
X143076053Y-96682164D01*
X143050987Y-96645902D01*
X143004469Y-96577714D01*
X142967138Y-96521787D01*
X142957633Y-96506987D01*
X143133164Y-96506987D01*
X143140966Y-96585512D01*
X143167768Y-96645533D01*
X143216268Y-96687968D01*
X143219587Y-96689849D01*
X143281948Y-96709198D01*
X143373606Y-96715704D01*
X143483991Y-96715704D01*
X143479299Y-96520000D01*
X143474606Y-96324295D01*
X143352473Y-96324295D01*
X143320641Y-96324411D01*
X143268163Y-96326656D01*
X143234306Y-96334290D01*
X143208894Y-96350553D01*
X143181752Y-96378689D01*
X143164395Y-96399660D01*
X143139735Y-96447343D01*
X143133164Y-96506987D01*
X142957633Y-96506987D01*
X142942308Y-96483123D01*
X142933295Y-96466727D01*
X142935670Y-96462750D01*
X142956248Y-96439016D01*
X142994541Y-96398260D01*
X143046404Y-96344848D01*
X143107690Y-96283144D01*
X143282085Y-96109343D01*
X143495519Y-96254895D01*
X143708953Y-96400448D01*
X143816632Y-96359596D01*
X143871716Y-96338140D01*
X143942216Y-96309424D01*
X143998772Y-96285068D01*
X144073233Y-96251392D01*
X144073643Y-96249344D01*
X144197393Y-96249344D01*
X144248229Y-96249344D01*
X144253178Y-96249324D01*
X144284128Y-96245420D01*
X144297311Y-96227883D01*
X144301036Y-96186885D01*
X144301118Y-96184485D01*
X144305676Y-96127170D01*
X144313528Y-96076033D01*
X144319869Y-96051015D01*
X144326639Y-96045870D01*
X144337095Y-96065604D01*
X144354869Y-96113508D01*
X144355148Y-96114283D01*
X144376853Y-96166110D01*
X144397327Y-96192198D01*
X144421903Y-96199377D01*
X144425106Y-96199276D01*
X144449427Y-96189492D01*
X144473376Y-96159568D01*
X144501876Y-96103606D01*
X144545635Y-96007836D01*
X144548901Y-96249344D01*
X144653127Y-96249344D01*
X144641707Y-96078622D01*
X144640604Y-96062232D01*
X144634214Y-95975765D01*
X144627690Y-95916589D01*
X144619333Y-95879544D01*
X144607443Y-95859472D01*
X144590322Y-95851213D01*
X144566269Y-95849606D01*
X144534928Y-95854608D01*
X144510796Y-95875531D01*
X144486286Y-95920393D01*
X144477755Y-95939110D01*
X144455759Y-95990901D01*
X144441223Y-96030126D01*
X144439918Y-96034156D01*
X144432107Y-96048042D01*
X144421481Y-96042752D01*
X144404631Y-96014459D01*
X144378149Y-95959339D01*
X144376851Y-95956549D01*
X144348994Y-95900026D01*
X144327508Y-95867688D01*
X144306620Y-95853045D01*
X144280558Y-95849606D01*
X144269259Y-95849879D01*
X144250919Y-95853934D01*
X144237672Y-95866751D01*
X144228107Y-95893228D01*
X144220813Y-95938264D01*
X144214379Y-96006758D01*
X144207394Y-96103606D01*
X144197393Y-96249344D01*
X144073643Y-96249344D01*
X144123690Y-95999417D01*
X144133921Y-95949585D01*
X144151507Y-95869659D01*
X144167084Y-95805812D01*
X144179259Y-95763594D01*
X144186639Y-95748556D01*
X144190659Y-95748711D01*
X144221785Y-95749089D01*
X144277561Y-95749394D01*
X144351680Y-95749598D01*
X144437833Y-95749672D01*
X144676535Y-95749672D01*
X144714997Y-95978688D01*
X144719145Y-96003075D01*
X144734101Y-96086314D01*
X144748042Y-96157264D01*
X144759565Y-96209055D01*
X144767268Y-96234818D01*
X144783476Y-96249344D01*
X144784646Y-96250393D01*
X144826641Y-96274333D01*
X144884952Y-96302027D01*
X144951882Y-96330391D01*
X145019734Y-96356343D01*
X145080809Y-96376797D01*
X145127410Y-96388671D01*
X145151839Y-96388880D01*
X145154685Y-96387062D01*
X145181616Y-96368990D01*
X145228767Y-96336802D01*
X145290394Y-96294431D01*
X145360756Y-96245809D01*
X145380436Y-96232226D01*
X145447592Y-96186651D01*
X145503646Y-96149780D01*
X145543217Y-96125099D01*
X145560923Y-96116098D01*
X145564967Y-96118159D01*
X145589175Y-96138131D01*
X145630324Y-96175947D01*
X145683929Y-96227420D01*
X145745505Y-96288365D01*
X145917186Y-96460632D01*
X145772833Y-96672068D01*
X145743041Y-96715704D01*
X145628479Y-96883503D01*
X145670314Y-96986981D01*
G36*
X142684859Y-99499620D02*
G01*
X142757977Y-99522507D01*
X142809496Y-99570110D01*
X142839958Y-99643077D01*
X142849906Y-99742058D01*
X142839149Y-99833383D01*
X142804780Y-99907268D01*
X142746921Y-99957696D01*
X142729534Y-99965734D01*
X142661020Y-99978668D01*
X142585954Y-99971835D01*
X142519257Y-99946001D01*
X142505683Y-99937640D01*
X142478771Y-99917709D01*
X142475601Y-99901707D01*
X142492213Y-99879969D01*
X142505372Y-99866453D01*
X142527282Y-99857335D01*
X142556022Y-99872495D01*
X142611720Y-99895674D01*
X142668952Y-99891614D01*
X142718571Y-99862980D01*
X142753519Y-99813921D01*
X142766738Y-99748589D01*
X142760710Y-99688511D01*
X142735576Y-99625431D01*
X142694408Y-99585550D01*
X142641029Y-99572134D01*
X142579261Y-99588449D01*
X142558240Y-99596424D01*
X142515143Y-99600366D01*
X142480893Y-99589771D01*
X142466934Y-99566841D01*
X142468398Y-99560472D01*
X142491445Y-99538491D01*
X142535004Y-99518090D01*
X142589372Y-99503065D01*
X142644847Y-99497213D01*
X142684859Y-99499620D01*
G37*
X142684859Y-99499620D02*
X142757977Y-99522507D01*
X142809496Y-99570110D01*
X142839958Y-99643077D01*
X142849906Y-99742058D01*
X142839149Y-99833383D01*
X142804780Y-99907268D01*
X142746921Y-99957696D01*
X142729534Y-99965734D01*
X142661020Y-99978668D01*
X142585954Y-99971835D01*
X142519257Y-99946001D01*
X142505683Y-99937640D01*
X142478771Y-99917709D01*
X142475601Y-99901707D01*
X142492213Y-99879969D01*
X142505372Y-99866453D01*
X142527282Y-99857335D01*
X142556022Y-99872495D01*
X142611720Y-99895674D01*
X142668952Y-99891614D01*
X142718571Y-99862980D01*
X142753519Y-99813921D01*
X142766738Y-99748589D01*
X142760710Y-99688511D01*
X142735576Y-99625431D01*
X142694408Y-99585550D01*
X142641029Y-99572134D01*
X142579261Y-99588449D01*
X142558240Y-99596424D01*
X142515143Y-99600366D01*
X142480893Y-99589771D01*
X142466934Y-99566841D01*
X142468398Y-99560472D01*
X142491445Y-99538491D01*
X142535004Y-99518090D01*
X142589372Y-99503065D01*
X142644847Y-99497213D01*
X142684859Y-99499620D01*
G36*
X146231131Y-100763049D02*
G01*
X146231131Y-100596491D01*
X146230855Y-100545356D01*
X146228664Y-100483343D01*
X146223246Y-100442792D01*
X146213373Y-100416339D01*
X146197820Y-100396622D01*
X146166873Y-100375220D01*
X146116388Y-100363768D01*
X146071231Y-100376058D01*
X146048794Y-100398502D01*
X146029089Y-100444440D01*
X146018049Y-100514139D01*
X146014606Y-100612052D01*
X146014606Y-100763049D01*
X145928538Y-100763049D01*
X145934097Y-100561700D01*
X145936406Y-100485594D01*
X145939583Y-100424298D01*
X145944725Y-100383783D01*
X145953277Y-100357375D01*
X145966683Y-100338402D01*
X145986388Y-100320191D01*
X145996487Y-100312230D01*
X146055960Y-100285218D01*
X146119129Y-100282296D01*
X146173816Y-100304486D01*
X146196951Y-100319986D01*
X146218639Y-100329470D01*
X146218774Y-100329464D01*
X146223577Y-100313306D01*
X146227506Y-100270423D01*
X146230158Y-100207226D01*
X146231131Y-100130131D01*
X146231130Y-100127979D01*
X146230108Y-100051167D01*
X146227417Y-99988423D01*
X146223460Y-99946160D01*
X146218639Y-99930792D01*
X146203539Y-99936603D01*
X146173816Y-99955775D01*
X146164420Y-99962106D01*
X146107125Y-99979336D01*
X146043724Y-99971641D01*
X145986388Y-99940043D01*
X145968298Y-99923280D01*
X145952288Y-99900985D01*
X145942782Y-99870531D01*
X145937447Y-99823534D01*
X145934458Y-99762051D01*
X146017986Y-99762051D01*
X146030603Y-99824666D01*
X146058090Y-99871431D01*
X146100047Y-99893734D01*
X146151222Y-99891353D01*
X146197820Y-99863639D01*
X146214344Y-99840347D01*
X146231333Y-99783099D01*
X146232735Y-99716363D01*
X146218918Y-99652711D01*
X146190249Y-99604718D01*
X146189572Y-99604042D01*
X146148469Y-99571637D01*
X146111924Y-99567188D01*
X146068945Y-99589298D01*
X146065006Y-99592283D01*
X146035623Y-99634541D01*
X146019805Y-99694903D01*
X146017986Y-99762051D01*
X145934458Y-99762051D01*
X145933950Y-99751611D01*
X145932060Y-99692430D01*
X145932728Y-99640302D01*
X145938371Y-99605501D01*
X145950654Y-99579123D01*
X145971243Y-99552266D01*
X145976191Y-99546534D01*
X146027708Y-99504957D01*
X146086364Y-99492532D01*
X146159091Y-99507612D01*
X146168750Y-99510790D01*
X146210009Y-99519423D01*
X146228355Y-99513391D01*
X146241165Y-99503089D01*
X146274158Y-99497213D01*
X146314410Y-99497213D01*
X146314410Y-100763049D01*
X146231131Y-100763049D01*
G37*
X146231131Y-100763049D02*
X146231131Y-100596491D01*
X146230855Y-100545356D01*
X146228664Y-100483343D01*
X146223246Y-100442792D01*
X146213373Y-100416339D01*
X146197820Y-100396622D01*
X146166873Y-100375220D01*
X146116388Y-100363768D01*
X146071231Y-100376058D01*
X146048794Y-100398502D01*
X146029089Y-100444440D01*
X146018049Y-100514139D01*
X146014606Y-100612052D01*
X146014606Y-100763049D01*
X145928538Y-100763049D01*
X145934097Y-100561700D01*
X145936406Y-100485594D01*
X145939583Y-100424298D01*
X145944725Y-100383783D01*
X145953277Y-100357375D01*
X145966683Y-100338402D01*
X145986388Y-100320191D01*
X145996487Y-100312230D01*
X146055960Y-100285218D01*
X146119129Y-100282296D01*
X146173816Y-100304486D01*
X146196951Y-100319986D01*
X146218639Y-100329470D01*
X146218774Y-100329464D01*
X146223577Y-100313306D01*
X146227506Y-100270423D01*
X146230158Y-100207226D01*
X146231131Y-100130131D01*
X146231130Y-100127979D01*
X146230108Y-100051167D01*
X146227417Y-99988423D01*
X146223460Y-99946160D01*
X146218639Y-99930792D01*
X146203539Y-99936603D01*
X146173816Y-99955775D01*
X146164420Y-99962106D01*
X146107125Y-99979336D01*
X146043724Y-99971641D01*
X145986388Y-99940043D01*
X145968298Y-99923280D01*
X145952288Y-99900985D01*
X145942782Y-99870531D01*
X145937447Y-99823534D01*
X145934458Y-99762051D01*
X146017986Y-99762051D01*
X146030603Y-99824666D01*
X146058090Y-99871431D01*
X146100047Y-99893734D01*
X146151222Y-99891353D01*
X146197820Y-99863639D01*
X146214344Y-99840347D01*
X146231333Y-99783099D01*
X146232735Y-99716363D01*
X146218918Y-99652711D01*
X146190249Y-99604718D01*
X146189572Y-99604042D01*
X146148469Y-99571637D01*
X146111924Y-99567188D01*
X146068945Y-99589298D01*
X146065006Y-99592283D01*
X146035623Y-99634541D01*
X146019805Y-99694903D01*
X146017986Y-99762051D01*
X145934458Y-99762051D01*
X145933950Y-99751611D01*
X145932060Y-99692430D01*
X145932728Y-99640302D01*
X145938371Y-99605501D01*
X145950654Y-99579123D01*
X145971243Y-99552266D01*
X145976191Y-99546534D01*
X146027708Y-99504957D01*
X146086364Y-99492532D01*
X146159091Y-99507612D01*
X146168750Y-99510790D01*
X146210009Y-99519423D01*
X146228355Y-99513391D01*
X146241165Y-99503089D01*
X146274158Y-99497213D01*
X146314410Y-99497213D01*
X146314410Y-100763049D01*
X146231131Y-100763049D01*
G36*
X146778036Y-99898550D02*
G01*
X146727192Y-99954234D01*
X146707823Y-99964800D01*
X146646441Y-99978480D01*
X146576497Y-99974924D01*
X146512139Y-99954139D01*
X146478570Y-99928960D01*
X146441056Y-99871929D01*
X146419619Y-99799505D01*
X146414506Y-99720112D01*
X146415984Y-99710057D01*
X146505296Y-99710057D01*
X146505686Y-99774604D01*
X146521432Y-99832174D01*
X146553226Y-99872374D01*
X146596331Y-99893884D01*
X146648589Y-99895460D01*
X146691342Y-99869250D01*
X146720207Y-99818375D01*
X146730803Y-99745954D01*
X146729897Y-99717649D01*
X146723550Y-99664358D01*
X146713135Y-99628566D01*
X146678990Y-99592141D01*
X146627214Y-99574545D01*
X146572419Y-99583592D01*
X146547826Y-99601604D01*
X146519573Y-99648926D01*
X146505296Y-99710057D01*
X146415984Y-99710057D01*
X146425962Y-99642176D01*
X146454234Y-99574121D01*
X146499569Y-99524373D01*
X146504985Y-99520933D01*
X146555544Y-99503634D01*
X146623106Y-99497213D01*
X146668996Y-99500448D01*
X146734661Y-99523339D01*
X146779757Y-99569759D01*
X146805744Y-99641570D01*
X146814082Y-99740632D01*
X146813603Y-99745954D01*
X146807051Y-99818824D01*
X146778036Y-99898550D01*
G37*
X146778036Y-99898550D02*
X146727192Y-99954234D01*
X146707823Y-99964800D01*
X146646441Y-99978480D01*
X146576497Y-99974924D01*
X146512139Y-99954139D01*
X146478570Y-99928960D01*
X146441056Y-99871929D01*
X146419619Y-99799505D01*
X146414506Y-99720112D01*
X146415984Y-99710057D01*
X146505296Y-99710057D01*
X146505686Y-99774604D01*
X146521432Y-99832174D01*
X146553226Y-99872374D01*
X146596331Y-99893884D01*
X146648589Y-99895460D01*
X146691342Y-99869250D01*
X146720207Y-99818375D01*
X146730803Y-99745954D01*
X146729897Y-99717649D01*
X146723550Y-99664358D01*
X146713135Y-99628566D01*
X146678990Y-99592141D01*
X146627214Y-99574545D01*
X146572419Y-99583592D01*
X146547826Y-99601604D01*
X146519573Y-99648926D01*
X146505296Y-99710057D01*
X146415984Y-99710057D01*
X146425962Y-99642176D01*
X146454234Y-99574121D01*
X146499569Y-99524373D01*
X146504985Y-99520933D01*
X146555544Y-99503634D01*
X146623106Y-99497213D01*
X146668996Y-99500448D01*
X146734661Y-99523339D01*
X146779757Y-99569759D01*
X146805744Y-99641570D01*
X146814082Y-99740632D01*
X146813603Y-99745954D01*
X146807051Y-99818824D01*
X146778036Y-99898550D01*
G36*
X143779834Y-100724500D02*
G01*
X143755198Y-100745396D01*
X143716740Y-100759307D01*
X143658247Y-100763049D01*
X143627796Y-100761794D01*
X143579429Y-100754277D01*
X143550806Y-100742229D01*
X143532226Y-100729762D01*
X143521104Y-100742229D01*
X143507090Y-100755424D01*
X143473218Y-100763049D01*
X143458047Y-100762447D01*
X143445817Y-100756957D01*
X143438394Y-100740896D01*
X143434579Y-100708579D01*
X143433170Y-100654321D01*
X143433042Y-100602835D01*
X143516246Y-100602835D01*
X143521647Y-100633254D01*
X143542419Y-100670252D01*
X143544709Y-100672382D01*
X143582706Y-100689810D01*
X143633575Y-100695734D01*
X143682672Y-100689977D01*
X143715354Y-100672359D01*
X143726114Y-100650613D01*
X143729885Y-100609900D01*
X143724723Y-100590501D01*
X143709883Y-100577390D01*
X143677761Y-100570463D01*
X143620344Y-100566549D01*
X143606370Y-100565896D01*
X143555449Y-100564640D01*
X143528562Y-100568598D01*
X143518048Y-100580439D01*
X143516246Y-100602835D01*
X143433042Y-100602835D01*
X143432967Y-100572437D01*
X143433003Y-100544135D01*
X143433961Y-100469093D01*
X143437112Y-100418037D01*
X143443625Y-100383800D01*
X143454671Y-100359216D01*
X143471423Y-100337117D01*
X143493922Y-100315238D01*
X143535032Y-100294605D01*
X143596148Y-100284121D01*
X143607646Y-100283210D01*
X143671487Y-100284673D01*
X143727621Y-100295604D01*
X143767540Y-100313620D01*
X143782738Y-100336342D01*
X143776949Y-100352098D01*
X143754189Y-100373135D01*
X143726555Y-100384908D01*
X143707576Y-100379626D01*
X143694521Y-100371172D01*
X143656801Y-100364529D01*
X143608952Y-100364527D01*
X143564315Y-100370878D01*
X143536233Y-100383298D01*
X143525000Y-100400802D01*
X143516246Y-100439313D01*
X143519319Y-100458477D01*
X143533692Y-100470745D01*
X143566694Y-100478293D01*
X143625655Y-100484123D01*
X143691391Y-100492184D01*
X143740385Y-100506927D01*
X143775557Y-100530946D01*
X143792775Y-100551011D01*
X143814940Y-100608284D01*
X143814829Y-100609900D01*
X143810711Y-100669955D01*
X143779834Y-100724500D01*
G37*
X143779834Y-100724500D02*
X143755198Y-100745396D01*
X143716740Y-100759307D01*
X143658247Y-100763049D01*
X143627796Y-100761794D01*
X143579429Y-100754277D01*
X143550806Y-100742229D01*
X143532226Y-100729762D01*
X143521104Y-100742229D01*
X143507090Y-100755424D01*
X143473218Y-100763049D01*
X143458047Y-100762447D01*
X143445817Y-100756957D01*
X143438394Y-100740896D01*
X143434579Y-100708579D01*
X143433170Y-100654321D01*
X143433042Y-100602835D01*
X143516246Y-100602835D01*
X143521647Y-100633254D01*
X143542419Y-100670252D01*
X143544709Y-100672382D01*
X143582706Y-100689810D01*
X143633575Y-100695734D01*
X143682672Y-100689977D01*
X143715354Y-100672359D01*
X143726114Y-100650613D01*
X143729885Y-100609900D01*
X143724723Y-100590501D01*
X143709883Y-100577390D01*
X143677761Y-100570463D01*
X143620344Y-100566549D01*
X143606370Y-100565896D01*
X143555449Y-100564640D01*
X143528562Y-100568598D01*
X143518048Y-100580439D01*
X143516246Y-100602835D01*
X143433042Y-100602835D01*
X143432967Y-100572437D01*
X143433003Y-100544135D01*
X143433961Y-100469093D01*
X143437112Y-100418037D01*
X143443625Y-100383800D01*
X143454671Y-100359216D01*
X143471423Y-100337117D01*
X143493922Y-100315238D01*
X143535032Y-100294605D01*
X143596148Y-100284121D01*
X143607646Y-100283210D01*
X143671487Y-100284673D01*
X143727621Y-100295604D01*
X143767540Y-100313620D01*
X143782738Y-100336342D01*
X143776949Y-100352098D01*
X143754189Y-100373135D01*
X143726555Y-100384908D01*
X143707576Y-100379626D01*
X143694521Y-100371172D01*
X143656801Y-100364529D01*
X143608952Y-100364527D01*
X143564315Y-100370878D01*
X143536233Y-100383298D01*
X143525000Y-100400802D01*
X143516246Y-100439313D01*
X143519319Y-100458477D01*
X143533692Y-100470745D01*
X143566694Y-100478293D01*
X143625655Y-100484123D01*
X143691391Y-100492184D01*
X143740385Y-100506927D01*
X143775557Y-100530946D01*
X143792775Y-100551011D01*
X143814940Y-100608284D01*
X143814829Y-100609900D01*
X143810711Y-100669955D01*
X143779834Y-100724500D01*
G36*
X145830358Y-99842371D02*
G01*
X145795817Y-99911426D01*
X145744094Y-99958156D01*
X145709473Y-99971105D01*
X145641998Y-99978799D01*
X145571281Y-99972165D01*
X145513340Y-99951654D01*
X145500707Y-99943955D01*
X145470960Y-99919659D01*
X145471091Y-99899999D01*
X145500067Y-99879338D01*
X145527664Y-99869247D01*
X145553365Y-99878752D01*
X145556403Y-99881214D01*
X145588347Y-99892403D01*
X145634207Y-99896950D01*
X145655594Y-99895353D01*
X145710277Y-99875815D01*
X145749654Y-99839633D01*
X145764770Y-99793875D01*
X145763117Y-99782822D01*
X145752627Y-99772717D01*
X145727091Y-99766937D01*
X145680424Y-99764319D01*
X145606541Y-99763704D01*
X145448311Y-99763704D01*
X145448311Y-99704582D01*
X145448392Y-99697564D01*
X145450208Y-99687927D01*
X145531590Y-99687927D01*
X145531681Y-99688290D01*
X145549069Y-99692733D01*
X145590711Y-99695884D01*
X145648180Y-99697082D01*
X145693404Y-99696017D01*
X145744680Y-99688528D01*
X145765755Y-99672155D01*
X145758275Y-99644888D01*
X145723888Y-99604718D01*
X145691791Y-99579087D01*
X145641099Y-99564373D01*
X145594697Y-99582075D01*
X145555958Y-99631650D01*
X145555208Y-99633104D01*
X145538502Y-99668189D01*
X145531590Y-99687927D01*
X145450208Y-99687927D01*
X145464050Y-99614487D01*
X145504786Y-99551369D01*
X145567636Y-99511260D01*
X145649640Y-99497213D01*
X145674214Y-99498200D01*
X145747596Y-99517873D01*
X145800105Y-99563381D01*
X145832788Y-99635516D01*
X145839834Y-99666619D01*
X145840189Y-99672155D01*
X145845703Y-99758324D01*
X145830358Y-99842371D01*
G37*
X145830358Y-99842371D02*
X145795817Y-99911426D01*
X145744094Y-99958156D01*
X145709473Y-99971105D01*
X145641998Y-99978799D01*
X145571281Y-99972165D01*
X145513340Y-99951654D01*
X145500707Y-99943955D01*
X145470960Y-99919659D01*
X145471091Y-99899999D01*
X145500067Y-99879338D01*
X145527664Y-99869247D01*
X145553365Y-99878752D01*
X145556403Y-99881214D01*
X145588347Y-99892403D01*
X145634207Y-99896950D01*
X145655594Y-99895353D01*
X145710277Y-99875815D01*
X145749654Y-99839633D01*
X145764770Y-99793875D01*
X145763117Y-99782822D01*
X145752627Y-99772717D01*
X145727091Y-99766937D01*
X145680424Y-99764319D01*
X145606541Y-99763704D01*
X145448311Y-99763704D01*
X145448311Y-99704582D01*
X145448392Y-99697564D01*
X145450208Y-99687927D01*
X145531590Y-99687927D01*
X145531681Y-99688290D01*
X145549069Y-99692733D01*
X145590711Y-99695884D01*
X145648180Y-99697082D01*
X145693404Y-99696017D01*
X145744680Y-99688528D01*
X145765755Y-99672155D01*
X145758275Y-99644888D01*
X145723888Y-99604718D01*
X145691791Y-99579087D01*
X145641099Y-99564373D01*
X145594697Y-99582075D01*
X145555958Y-99631650D01*
X145555208Y-99633104D01*
X145538502Y-99668189D01*
X145531590Y-99687927D01*
X145450208Y-99687927D01*
X145464050Y-99614487D01*
X145504786Y-99551369D01*
X145567636Y-99511260D01*
X145649640Y-99497213D01*
X145674214Y-99498200D01*
X145747596Y-99517873D01*
X145800105Y-99563381D01*
X145832788Y-99635516D01*
X145839834Y-99666619D01*
X145840189Y-99672155D01*
X145845703Y-99758324D01*
X145830358Y-99842371D01*
G36*
X144176634Y-99849793D02*
G01*
X144146037Y-99913306D01*
X144101061Y-99955251D01*
X144080692Y-99964886D01*
X144004106Y-99980705D01*
X143927757Y-99969388D01*
X143862526Y-99931996D01*
X143852249Y-99922643D01*
X143828097Y-99896263D01*
X143814085Y-99867065D01*
X143806660Y-99824886D01*
X143802272Y-99759564D01*
X143801611Y-99744391D01*
X143801975Y-99732974D01*
X143882672Y-99732974D01*
X143885090Y-99790244D01*
X143895298Y-99833618D01*
X143915983Y-99863639D01*
X143949715Y-99887127D01*
X144004893Y-99894670D01*
X144062179Y-99871022D01*
X144075223Y-99860515D01*
X144090377Y-99837478D01*
X144097451Y-99800665D01*
X144099197Y-99740358D01*
X144095585Y-99679799D01*
X144077805Y-99620473D01*
X144043529Y-99586903D01*
X143990934Y-99576327D01*
X143958486Y-99579867D01*
X143915443Y-99604739D01*
X143890634Y-99655106D01*
X143882672Y-99732974D01*
X143801975Y-99732974D01*
X143804711Y-99647105D01*
X143823705Y-99576857D01*
X143860933Y-99530535D01*
X143918734Y-99505024D01*
X143999448Y-99497213D01*
X143999761Y-99497213D01*
X144056954Y-99500654D01*
X144095933Y-99514355D01*
X144131338Y-99543448D01*
X144142308Y-99555692D01*
X144175687Y-99617663D01*
X144192104Y-99693191D01*
X144192163Y-99740358D01*
X144192204Y-99773494D01*
X144176634Y-99849793D01*
G37*
X144176634Y-99849793D02*
X144146037Y-99913306D01*
X144101061Y-99955251D01*
X144080692Y-99964886D01*
X144004106Y-99980705D01*
X143927757Y-99969388D01*
X143862526Y-99931996D01*
X143852249Y-99922643D01*
X143828097Y-99896263D01*
X143814085Y-99867065D01*
X143806660Y-99824886D01*
X143802272Y-99759564D01*
X143801611Y-99744391D01*
X143801975Y-99732974D01*
X143882672Y-99732974D01*
X143885090Y-99790244D01*
X143895298Y-99833618D01*
X143915983Y-99863639D01*
X143949715Y-99887127D01*
X144004893Y-99894670D01*
X144062179Y-99871022D01*
X144075223Y-99860515D01*
X144090377Y-99837478D01*
X144097451Y-99800665D01*
X144099197Y-99740358D01*
X144095585Y-99679799D01*
X144077805Y-99620473D01*
X144043529Y-99586903D01*
X143990934Y-99576327D01*
X143958486Y-99579867D01*
X143915443Y-99604739D01*
X143890634Y-99655106D01*
X143882672Y-99732974D01*
X143801975Y-99732974D01*
X143804711Y-99647105D01*
X143823705Y-99576857D01*
X143860933Y-99530535D01*
X143918734Y-99505024D01*
X143999448Y-99497213D01*
X143999761Y-99497213D01*
X144056954Y-99500654D01*
X144095933Y-99514355D01*
X144131338Y-99543448D01*
X144142308Y-99555692D01*
X144175687Y-99617663D01*
X144192104Y-99693191D01*
X144192163Y-99740358D01*
X144192204Y-99773494D01*
X144176634Y-99849793D01*
G36*
X142415462Y-99745531D02*
G01*
X142407791Y-99832609D01*
X142381802Y-99898496D01*
X142335598Y-99949109D01*
X142331103Y-99952572D01*
X142297940Y-99971147D01*
X142256975Y-99978339D01*
X142195774Y-99976593D01*
X142181578Y-99975400D01*
X142113529Y-99963101D01*
X142070399Y-99942948D01*
X142054967Y-99916920D01*
X142070012Y-99886997D01*
X142097463Y-99869750D01*
X142130781Y-99878669D01*
X142170124Y-99892907D01*
X142228509Y-99894352D01*
X142281087Y-99876495D01*
X142319074Y-99842872D01*
X142333688Y-99797016D01*
X142331379Y-99781733D01*
X142320312Y-99771935D01*
X142294351Y-99766513D01*
X142247358Y-99764194D01*
X142173195Y-99763704D01*
X142012702Y-99763704D01*
X142023397Y-99685672D01*
X142024812Y-99675971D01*
X142027272Y-99666911D01*
X142117164Y-99666911D01*
X142119532Y-99680202D01*
X142133508Y-99690911D01*
X142166417Y-99695872D01*
X142225426Y-99697082D01*
X142273838Y-99696402D01*
X142311879Y-99692473D01*
X142329434Y-99683236D01*
X142333688Y-99666673D01*
X142328550Y-99645231D01*
X142301482Y-99607249D01*
X142261607Y-99576498D01*
X142220837Y-99563836D01*
X142205595Y-99566101D01*
X142164639Y-99588954D01*
X142131076Y-99626620D01*
X142117164Y-99666911D01*
X142027272Y-99666911D01*
X142047506Y-99592383D01*
X142087171Y-99536117D01*
X142146798Y-99504394D01*
X142229380Y-99494437D01*
X142271483Y-99496750D01*
X142314831Y-99511237D01*
X142356142Y-99545291D01*
X142376112Y-99566825D01*
X142396713Y-99599655D01*
X142407870Y-99641729D01*
X142410258Y-99666673D01*
X142413933Y-99705077D01*
X142415462Y-99745531D01*
G37*
X142415462Y-99745531D02*
X142407791Y-99832609D01*
X142381802Y-99898496D01*
X142335598Y-99949109D01*
X142331103Y-99952572D01*
X142297940Y-99971147D01*
X142256975Y-99978339D01*
X142195774Y-99976593D01*
X142181578Y-99975400D01*
X142113529Y-99963101D01*
X142070399Y-99942948D01*
X142054967Y-99916920D01*
X142070012Y-99886997D01*
X142097463Y-99869750D01*
X142130781Y-99878669D01*
X142170124Y-99892907D01*
X142228509Y-99894352D01*
X142281087Y-99876495D01*
X142319074Y-99842872D01*
X142333688Y-99797016D01*
X142331379Y-99781733D01*
X142320312Y-99771935D01*
X142294351Y-99766513D01*
X142247358Y-99764194D01*
X142173195Y-99763704D01*
X142012702Y-99763704D01*
X142023397Y-99685672D01*
X142024812Y-99675971D01*
X142027272Y-99666911D01*
X142117164Y-99666911D01*
X142119532Y-99680202D01*
X142133508Y-99690911D01*
X142166417Y-99695872D01*
X142225426Y-99697082D01*
X142273838Y-99696402D01*
X142311879Y-99692473D01*
X142329434Y-99683236D01*
X142333688Y-99666673D01*
X142328550Y-99645231D01*
X142301482Y-99607249D01*
X142261607Y-99576498D01*
X142220837Y-99563836D01*
X142205595Y-99566101D01*
X142164639Y-99588954D01*
X142131076Y-99626620D01*
X142117164Y-99666911D01*
X142027272Y-99666911D01*
X142047506Y-99592383D01*
X142087171Y-99536117D01*
X142146798Y-99504394D01*
X142229380Y-99494437D01*
X142271483Y-99496750D01*
X142314831Y-99511237D01*
X142356142Y-99545291D01*
X142376112Y-99566825D01*
X142396713Y-99599655D01*
X142407870Y-99641729D01*
X142410258Y-99666673D01*
X142413933Y-99705077D01*
X142415462Y-99745531D01*
G36*
X143699459Y-99664305D02*
G01*
X143699437Y-99673687D01*
X143694517Y-99786394D01*
X143680462Y-99869968D01*
X143656511Y-99927321D01*
X143621905Y-99961366D01*
X143600923Y-99970343D01*
X143544479Y-99978939D01*
X143485357Y-99973911D01*
X143440314Y-99955775D01*
X143407981Y-99935516D01*
X143388021Y-99933951D01*
X143389023Y-99955245D01*
X143387041Y-99974469D01*
X143357494Y-99980229D01*
X143316377Y-99980229D01*
X143316377Y-99738721D01*
X143316404Y-99684427D01*
X143316906Y-99606181D01*
X143318659Y-99553489D01*
X143322446Y-99521301D01*
X143329052Y-99504568D01*
X143339260Y-99498241D01*
X143353852Y-99497272D01*
X143359328Y-99497345D01*
X143374551Y-99500319D01*
X143383973Y-99512175D01*
X143388985Y-99539019D01*
X143390973Y-99586959D01*
X143391328Y-99662102D01*
X143393852Y-99749155D01*
X143403821Y-99819857D01*
X143423080Y-99865372D01*
X143453436Y-99889727D01*
X143496696Y-99896950D01*
X143507508Y-99896722D01*
X143546325Y-99889146D01*
X143572801Y-99867357D01*
X143589070Y-99826637D01*
X143597267Y-99762263D01*
X143599524Y-99669516D01*
X143599524Y-99497213D01*
X143699459Y-99497213D01*
X143699459Y-99664305D01*
G37*
X143699459Y-99664305D02*
X143699437Y-99673687D01*
X143694517Y-99786394D01*
X143680462Y-99869968D01*
X143656511Y-99927321D01*
X143621905Y-99961366D01*
X143600923Y-99970343D01*
X143544479Y-99978939D01*
X143485357Y-99973911D01*
X143440314Y-99955775D01*
X143407981Y-99935516D01*
X143388021Y-99933951D01*
X143389023Y-99955245D01*
X143387041Y-99974469D01*
X143357494Y-99980229D01*
X143316377Y-99980229D01*
X143316377Y-99738721D01*
X143316404Y-99684427D01*
X143316906Y-99606181D01*
X143318659Y-99553489D01*
X143322446Y-99521301D01*
X143329052Y-99504568D01*
X143339260Y-99498241D01*
X143353852Y-99497272D01*
X143359328Y-99497345D01*
X143374551Y-99500319D01*
X143383973Y-99512175D01*
X143388985Y-99539019D01*
X143390973Y-99586959D01*
X143391328Y-99662102D01*
X143393852Y-99749155D01*
X143403821Y-99819857D01*
X143423080Y-99865372D01*
X143453436Y-99889727D01*
X143496696Y-99896950D01*
X143507508Y-99896722D01*
X143546325Y-99889146D01*
X143572801Y-99867357D01*
X143589070Y-99826637D01*
X143597267Y-99762263D01*
X143599524Y-99669516D01*
X143599524Y-99497213D01*
X143699459Y-99497213D01*
X143699459Y-99664305D01*
G36*
X142861733Y-97639477D02*
G01*
X142866672Y-97668691D01*
X142864784Y-97696505D01*
X142858439Y-97717730D01*
X142838000Y-97721385D01*
X142800144Y-97718615D01*
X142762217Y-97705885D01*
X142750082Y-97679847D01*
X142753672Y-97662222D01*
X142770901Y-97648198D01*
X142790466Y-97646115D01*
X142829197Y-97637928D01*
X142840734Y-97635263D01*
X142861733Y-97639477D01*
G37*
X142861733Y-97639477D02*
X142866672Y-97668691D01*
X142864784Y-97696505D01*
X142858439Y-97717730D01*
X142838000Y-97721385D01*
X142800144Y-97718615D01*
X142762217Y-97705885D01*
X142750082Y-97679847D01*
X142753672Y-97662222D01*
X142770901Y-97648198D01*
X142790466Y-97646115D01*
X142829197Y-97637928D01*
X142840734Y-97635263D01*
X142861733Y-97639477D01*
G36*
X145136479Y-99490478D02*
G01*
X145184929Y-99504797D01*
X145203291Y-99510667D01*
X145244235Y-99518785D01*
X145262322Y-99513406D01*
X145275133Y-99503095D01*
X145308126Y-99497213D01*
X145348377Y-99497213D01*
X145348377Y-99980229D01*
X145265098Y-99980229D01*
X145265098Y-99806553D01*
X145265062Y-99773291D01*
X145264138Y-99705981D01*
X145260810Y-99662036D01*
X145253558Y-99634252D01*
X145240866Y-99615427D01*
X145221213Y-99598356D01*
X145212197Y-99591457D01*
X145168348Y-99567726D01*
X145130985Y-99571974D01*
X145089456Y-99604718D01*
X145088695Y-99605481D01*
X145070215Y-99626602D01*
X145058477Y-99650199D01*
X145051966Y-99683979D01*
X145049170Y-99735648D01*
X145048574Y-99812915D01*
X145048574Y-99980229D01*
X144965295Y-99980229D01*
X144965295Y-99797800D01*
X144965537Y-99756252D01*
X144969076Y-99667290D01*
X144978274Y-99603548D01*
X144994965Y-99559269D01*
X145020981Y-99528693D01*
X145058155Y-99506062D01*
X145065362Y-99502696D01*
X145102099Y-99489723D01*
X145136479Y-99490478D01*
G37*
X145136479Y-99490478D02*
X145184929Y-99504797D01*
X145203291Y-99510667D01*
X145244235Y-99518785D01*
X145262322Y-99513406D01*
X145275133Y-99503095D01*
X145308126Y-99497213D01*
X145348377Y-99497213D01*
X145348377Y-99980229D01*
X145265098Y-99980229D01*
X145265098Y-99806553D01*
X145265062Y-99773291D01*
X145264138Y-99705981D01*
X145260810Y-99662036D01*
X145253558Y-99634252D01*
X145240866Y-99615427D01*
X145221213Y-99598356D01*
X145212197Y-99591457D01*
X145168348Y-99567726D01*
X145130985Y-99571974D01*
X145089456Y-99604718D01*
X145088695Y-99605481D01*
X145070215Y-99626602D01*
X145058477Y-99650199D01*
X145051966Y-99683979D01*
X145049170Y-99735648D01*
X145048574Y-99812915D01*
X145048574Y-99980229D01*
X144965295Y-99980229D01*
X144965295Y-99797800D01*
X144965537Y-99756252D01*
X144969076Y-99667290D01*
X144978274Y-99603548D01*
X144994965Y-99559269D01*
X145020981Y-99528693D01*
X145058155Y-99506062D01*
X145065362Y-99502696D01*
X145102099Y-99489723D01*
X145136479Y-99490478D01*
G36*
X143021193Y-99505318D02*
G01*
X143037952Y-99510702D01*
X143078945Y-99518900D01*
X143097076Y-99513406D01*
X143109887Y-99503095D01*
X143142880Y-99497213D01*
X143183131Y-99497213D01*
X143183131Y-99980229D01*
X143099852Y-99980229D01*
X143099852Y-99809800D01*
X143099206Y-99733525D01*
X143096309Y-99682587D01*
X143089646Y-99649278D01*
X143077704Y-99625891D01*
X143058970Y-99604718D01*
X143021670Y-99573331D01*
X142989278Y-99565658D01*
X142950558Y-99580166D01*
X142941472Y-99584367D01*
X142917249Y-99583000D01*
X142892834Y-99554969D01*
X142876535Y-99527126D01*
X142879576Y-99510682D01*
X142908243Y-99497238D01*
X142910976Y-99496238D01*
X142958914Y-99490544D01*
X143021193Y-99505318D01*
G37*
X143021193Y-99505318D02*
X143037952Y-99510702D01*
X143078945Y-99518900D01*
X143097076Y-99513406D01*
X143109887Y-99503095D01*
X143142880Y-99497213D01*
X143183131Y-99497213D01*
X143183131Y-99980229D01*
X143099852Y-99980229D01*
X143099852Y-99809800D01*
X143099206Y-99733525D01*
X143096309Y-99682587D01*
X143089646Y-99649278D01*
X143077704Y-99625891D01*
X143058970Y-99604718D01*
X143021670Y-99573331D01*
X142989278Y-99565658D01*
X142950558Y-99580166D01*
X142941472Y-99584367D01*
X142917249Y-99583000D01*
X142892834Y-99554969D01*
X142876535Y-99527126D01*
X142879576Y-99510682D01*
X142908243Y-99497238D01*
X142910976Y-99496238D01*
X142958914Y-99490544D01*
X143021193Y-99505318D01*
G36*
X145331721Y-100763049D02*
G01*
X145248442Y-100763049D01*
X145248442Y-100596491D01*
X145248070Y-100536839D01*
X145245693Y-100478257D01*
X145239969Y-100440038D01*
X145229592Y-100414697D01*
X145213256Y-100394747D01*
X145210459Y-100392008D01*
X145172316Y-100368656D01*
X145123074Y-100368486D01*
X145118427Y-100369198D01*
X145072037Y-100367821D01*
X145038169Y-100344360D01*
X145026767Y-100331051D01*
X145018038Y-100310912D01*
X145032580Y-100295926D01*
X145038941Y-100292398D01*
X145088422Y-100281172D01*
X145145260Y-100285531D01*
X145191128Y-100304486D01*
X145218580Y-100322720D01*
X145241492Y-100326680D01*
X145248442Y-100305016D01*
X145256592Y-100288720D01*
X145290082Y-100280032D01*
X145331721Y-100280032D01*
X145331721Y-100763049D01*
G37*
X145331721Y-100763049D02*
X145248442Y-100763049D01*
X145248442Y-100596491D01*
X145248070Y-100536839D01*
X145245693Y-100478257D01*
X145239969Y-100440038D01*
X145229592Y-100414697D01*
X145213256Y-100394747D01*
X145210459Y-100392008D01*
X145172316Y-100368656D01*
X145123074Y-100368486D01*
X145118427Y-100369198D01*
X145072037Y-100367821D01*
X145038169Y-100344360D01*
X145026767Y-100331051D01*
X145018038Y-100310912D01*
X145032580Y-100295926D01*
X145038941Y-100292398D01*
X145088422Y-100281172D01*
X145145260Y-100285531D01*
X145191128Y-100304486D01*
X145218580Y-100322720D01*
X145241492Y-100326680D01*
X145248442Y-100305016D01*
X145256592Y-100288720D01*
X145290082Y-100280032D01*
X145331721Y-100280032D01*
X145331721Y-100763049D01*
G36*
X144531214Y-99499617D02*
G01*
X144573139Y-99507559D01*
X144592235Y-99519753D01*
X144621820Y-99560243D01*
X144639865Y-99612814D01*
X144640494Y-99663835D01*
X144629946Y-99696990D01*
X144603907Y-99730280D01*
X144558601Y-99751591D01*
X144487061Y-99765537D01*
X144432273Y-99776012D01*
X144377933Y-99797669D01*
X144353018Y-99826043D01*
X144359349Y-99859787D01*
X144373835Y-99873516D01*
X144417380Y-99889514D01*
X144473837Y-99894901D01*
X144531148Y-99889040D01*
X144577250Y-99871293D01*
X144599808Y-99857708D01*
X144623040Y-99853215D01*
X144644403Y-99868724D01*
X144645467Y-99869805D01*
X144659796Y-99899518D01*
X144642482Y-99927867D01*
X144592705Y-99956238D01*
X144571634Y-99963450D01*
X144514191Y-99974809D01*
X144451850Y-99979577D01*
X144437000Y-99979581D01*
X144385366Y-99975565D01*
X144349291Y-99961222D01*
X144314440Y-99931543D01*
X144293002Y-99906223D01*
X144267680Y-99847738D01*
X144270731Y-99791279D01*
X144299281Y-99743149D01*
X144350456Y-99709649D01*
X144421381Y-99697082D01*
X144478464Y-99690944D01*
X144534420Y-99665359D01*
X144560187Y-99642196D01*
X144562550Y-99624538D01*
X144542011Y-99598736D01*
X144504066Y-99572651D01*
X144445510Y-99566045D01*
X144379329Y-99587338D01*
X144354751Y-99598788D01*
X144329971Y-99599617D01*
X144305868Y-99578806D01*
X144298959Y-99571118D01*
X144284703Y-99550275D01*
X144292889Y-99535485D01*
X144327118Y-99516124D01*
X144353139Y-99507832D01*
X144407583Y-99500228D01*
X144471485Y-99497331D01*
X144531214Y-99499617D01*
G37*
X144531214Y-99499617D02*
X144573139Y-99507559D01*
X144592235Y-99519753D01*
X144621820Y-99560243D01*
X144639865Y-99612814D01*
X144640494Y-99663835D01*
X144629946Y-99696990D01*
X144603907Y-99730280D01*
X144558601Y-99751591D01*
X144487061Y-99765537D01*
X144432273Y-99776012D01*
X144377933Y-99797669D01*
X144353018Y-99826043D01*
X144359349Y-99859787D01*
X144373835Y-99873516D01*
X144417380Y-99889514D01*
X144473837Y-99894901D01*
X144531148Y-99889040D01*
X144577250Y-99871293D01*
X144599808Y-99857708D01*
X144623040Y-99853215D01*
X144644403Y-99868724D01*
X144645467Y-99869805D01*
X144659796Y-99899518D01*
X144642482Y-99927867D01*
X144592705Y-99956238D01*
X144571634Y-99963450D01*
X144514191Y-99974809D01*
X144451850Y-99979577D01*
X144437000Y-99979581D01*
X144385366Y-99975565D01*
X144349291Y-99961222D01*
X144314440Y-99931543D01*
X144293002Y-99906223D01*
X144267680Y-99847738D01*
X144270731Y-99791279D01*
X144299281Y-99743149D01*
X144350456Y-99709649D01*
X144421381Y-99697082D01*
X144478464Y-99690944D01*
X144534420Y-99665359D01*
X144560187Y-99642196D01*
X144562550Y-99624538D01*
X144542011Y-99598736D01*
X144504066Y-99572651D01*
X144445510Y-99566045D01*
X144379329Y-99587338D01*
X144354751Y-99598788D01*
X144329971Y-99599617D01*
X144305868Y-99578806D01*
X144298959Y-99571118D01*
X144284703Y-99550275D01*
X144292889Y-99535485D01*
X144327118Y-99516124D01*
X144353139Y-99507832D01*
X144407583Y-99500228D01*
X144471485Y-99497331D01*
X144531214Y-99499617D01*
G36*
X143352601Y-96399395D02*
G01*
X143369428Y-96403844D01*
X143378535Y-96419916D01*
X143382276Y-96454837D01*
X143383000Y-96515836D01*
X143382951Y-96538993D01*
X143381504Y-96590711D01*
X143376275Y-96618704D01*
X143364913Y-96630200D01*
X143345067Y-96632426D01*
X143341544Y-96632386D01*
X143283825Y-96617105D01*
X143246412Y-96576939D01*
X143233098Y-96515836D01*
X143233137Y-96512168D01*
X143247811Y-96452066D01*
X143286386Y-96413109D01*
X143345067Y-96399245D01*
X143352601Y-96399395D01*
G37*
X143352601Y-96399395D02*
X143369428Y-96403844D01*
X143378535Y-96419916D01*
X143382276Y-96454837D01*
X143383000Y-96515836D01*
X143382951Y-96538993D01*
X143381504Y-96590711D01*
X143376275Y-96618704D01*
X143364913Y-96630200D01*
X143345067Y-96632426D01*
X143341544Y-96632386D01*
X143283825Y-96617105D01*
X143246412Y-96576939D01*
X143233098Y-96515836D01*
X143233137Y-96512168D01*
X143247811Y-96452066D01*
X143286386Y-96413109D01*
X143345067Y-96399245D01*
X143352601Y-96399395D01*
G36*
X146094873Y-97498211D02*
G01*
X146097885Y-97536941D01*
X146097875Y-97542558D01*
X146095270Y-97578005D01*
X146082616Y-97588972D01*
X146052082Y-97583405D01*
X146042729Y-97580155D01*
X146014753Y-97559398D01*
X145999229Y-97532226D01*
X145999876Y-97508611D01*
X146020414Y-97498524D01*
X146033160Y-97497598D01*
X146071539Y-97488414D01*
X146083482Y-97485935D01*
X146094873Y-97498211D01*
G37*
X146094873Y-97498211D02*
X146097885Y-97536941D01*
X146097875Y-97542558D01*
X146095270Y-97578005D01*
X146082616Y-97588972D01*
X146052082Y-97583405D01*
X146042729Y-97580155D01*
X146014753Y-97559398D01*
X145999229Y-97532226D01*
X145999876Y-97508611D01*
X146020414Y-97498524D01*
X146033160Y-97497598D01*
X146071539Y-97488414D01*
X146083482Y-97485935D01*
X146094873Y-97498211D01*
G36*
X144507672Y-100280541D02*
G01*
X144526535Y-100289681D01*
X144522813Y-100317508D01*
X144522401Y-100318828D01*
X144512303Y-100350834D01*
X144494644Y-100406510D01*
X144471794Y-100478393D01*
X144446126Y-100559016D01*
X144429648Y-100610273D01*
X144406463Y-100678761D01*
X144388691Y-100723224D01*
X144373752Y-100748721D01*
X144359066Y-100760310D01*
X144342053Y-100763049D01*
X144332165Y-100762424D01*
X144314314Y-100754563D01*
X144298634Y-100732799D01*
X144281526Y-100691042D01*
X144259389Y-100623201D01*
X144251513Y-100597500D01*
X144233248Y-100533989D01*
X144220548Y-100484013D01*
X144215787Y-100456643D01*
X144210097Y-100437330D01*
X144191485Y-100431234D01*
X144174459Y-100450754D01*
X144172008Y-100458433D01*
X144160901Y-100494631D01*
X144144044Y-100550419D01*
X144124007Y-100617311D01*
X144108266Y-100668883D01*
X144090704Y-100719176D01*
X144075714Y-100747592D01*
X144059777Y-100760195D01*
X144039371Y-100763049D01*
X144011392Y-100758129D01*
X143991932Y-100742229D01*
X143991344Y-100740319D01*
X143982464Y-100712522D01*
X143965764Y-100660851D01*
X143943395Y-100591941D01*
X143917504Y-100512426D01*
X143912326Y-100496510D01*
X143887687Y-100419681D01*
X143867687Y-100355552D01*
X143854265Y-100310432D01*
X143849360Y-100290631D01*
X143862076Y-100283257D01*
X143895164Y-100283090D01*
X143900427Y-100283755D01*
X143920133Y-100289194D01*
X143935236Y-100303032D01*
X143948833Y-100331267D01*
X143964022Y-100379897D01*
X143983900Y-100454918D01*
X143997884Y-100506390D01*
X144015994Y-100565053D01*
X144030934Y-100604477D01*
X144040426Y-100618082D01*
X144046997Y-100609397D01*
X144062681Y-100574641D01*
X144083423Y-100519733D01*
X144106506Y-100451525D01*
X144109157Y-100443313D01*
X144135029Y-100368010D01*
X144155703Y-100319630D01*
X144173703Y-100293192D01*
X144191554Y-100283716D01*
X144192408Y-100283602D01*
X144210156Y-100286626D01*
X144225614Y-100304590D01*
X144242112Y-100343319D01*
X144262980Y-100408634D01*
X144266290Y-100419596D01*
X144287777Y-100487900D01*
X144308017Y-100548068D01*
X144323018Y-100588163D01*
X144344190Y-100638131D01*
X144380945Y-100513213D01*
X144403520Y-100436572D01*
X144424088Y-100368687D01*
X144439311Y-100323937D01*
X144451503Y-100297510D01*
X144462976Y-100284592D01*
X144476044Y-100280370D01*
X144493020Y-100280032D01*
X144507672Y-100280541D01*
G37*
X144507672Y-100280541D02*
X144526535Y-100289681D01*
X144522813Y-100317508D01*
X144522401Y-100318828D01*
X144512303Y-100350834D01*
X144494644Y-100406510D01*
X144471794Y-100478393D01*
X144446126Y-100559016D01*
X144429648Y-100610273D01*
X144406463Y-100678761D01*
X144388691Y-100723224D01*
X144373752Y-100748721D01*
X144359066Y-100760310D01*
X144342053Y-100763049D01*
X144332165Y-100762424D01*
X144314314Y-100754563D01*
X144298634Y-100732799D01*
X144281526Y-100691042D01*
X144259389Y-100623201D01*
X144251513Y-100597500D01*
X144233248Y-100533989D01*
X144220548Y-100484013D01*
X144215787Y-100456643D01*
X144210097Y-100437330D01*
X144191485Y-100431234D01*
X144174459Y-100450754D01*
X144172008Y-100458433D01*
X144160901Y-100494631D01*
X144144044Y-100550419D01*
X144124007Y-100617311D01*
X144108266Y-100668883D01*
X144090704Y-100719176D01*
X144075714Y-100747592D01*
X144059777Y-100760195D01*
X144039371Y-100763049D01*
X144011392Y-100758129D01*
X143991932Y-100742229D01*
X143991344Y-100740319D01*
X143982464Y-100712522D01*
X143965764Y-100660851D01*
X143943395Y-100591941D01*
X143917504Y-100512426D01*
X143912326Y-100496510D01*
X143887687Y-100419681D01*
X143867687Y-100355552D01*
X143854265Y-100310432D01*
X143849360Y-100290631D01*
X143862076Y-100283257D01*
X143895164Y-100283090D01*
X143900427Y-100283755D01*
X143920133Y-100289194D01*
X143935236Y-100303032D01*
X143948833Y-100331267D01*
X143964022Y-100379897D01*
X143983900Y-100454918D01*
X143997884Y-100506390D01*
X144015994Y-100565053D01*
X144030934Y-100604477D01*
X144040426Y-100618082D01*
X144046997Y-100609397D01*
X144062681Y-100574641D01*
X144083423Y-100519733D01*
X144106506Y-100451525D01*
X144109157Y-100443313D01*
X144135029Y-100368010D01*
X144155703Y-100319630D01*
X144173703Y-100293192D01*
X144191554Y-100283716D01*
X144192408Y-100283602D01*
X144210156Y-100286626D01*
X144225614Y-100304590D01*
X144242112Y-100343319D01*
X144262980Y-100408634D01*
X144266290Y-100419596D01*
X144287777Y-100487900D01*
X144308017Y-100548068D01*
X144323018Y-100588163D01*
X144344190Y-100638131D01*
X144380945Y-100513213D01*
X144403520Y-100436572D01*
X144424088Y-100368687D01*
X144439311Y-100323937D01*
X144451503Y-100297510D01*
X144462976Y-100284592D01*
X144476044Y-100280370D01*
X144493020Y-100280032D01*
X144507672Y-100280541D01*
G36*
X145827900Y-100695047D02*
G01*
X145793057Y-100738044D01*
X145762669Y-100751052D01*
X145709799Y-100760405D01*
X145651359Y-100762378D01*
X145599964Y-100756691D01*
X145568233Y-100743062D01*
X145553162Y-100731474D01*
X145548246Y-100743062D01*
X145535666Y-100756795D01*
X145502442Y-100763084D01*
X145456639Y-100763119D01*
X145460397Y-100609816D01*
X145548246Y-100609816D01*
X145553290Y-100645748D01*
X145568233Y-100676439D01*
X145594023Y-100689037D01*
X145641768Y-100695236D01*
X145693950Y-100691761D01*
X145735623Y-100678436D01*
X145755500Y-100659084D01*
X145763481Y-100620720D01*
X145744783Y-100583167D01*
X145731411Y-100575888D01*
X145690297Y-100566751D01*
X145636521Y-100563180D01*
X145590649Y-100563867D01*
X145561532Y-100568930D01*
X145550177Y-100582778D01*
X145548246Y-100609816D01*
X145460397Y-100609816D01*
X145461029Y-100584035D01*
X145461480Y-100566062D01*
X145464532Y-100475030D01*
X145469220Y-100410594D01*
X145477055Y-100366986D01*
X145489549Y-100338442D01*
X145508212Y-100319196D01*
X145534556Y-100303482D01*
X145558278Y-100294251D01*
X145618507Y-100284076D01*
X145685769Y-100284106D01*
X145747007Y-100293859D01*
X145789164Y-100312855D01*
X145800792Y-100323445D01*
X145805965Y-100340848D01*
X145787237Y-100366093D01*
X145764521Y-100384514D01*
X145741846Y-100380360D01*
X145734179Y-100375116D01*
X145696350Y-100365717D01*
X145646230Y-100364114D01*
X145598598Y-100370057D01*
X145568233Y-100383298D01*
X145556473Y-100402439D01*
X145548246Y-100441593D01*
X145548459Y-100449903D01*
X145554963Y-100469543D01*
X145577124Y-100478055D01*
X145623732Y-100479901D01*
X145661901Y-100481686D01*
X145739780Y-100498282D01*
X145798725Y-100529900D01*
X145832187Y-100573596D01*
X145832389Y-100574129D01*
X145839589Y-100620720D01*
X145841993Y-100636281D01*
X145827900Y-100695047D01*
G37*
X145827900Y-100695047D02*
X145793057Y-100738044D01*
X145762669Y-100751052D01*
X145709799Y-100760405D01*
X145651359Y-100762378D01*
X145599964Y-100756691D01*
X145568233Y-100743062D01*
X145553162Y-100731474D01*
X145548246Y-100743062D01*
X145535666Y-100756795D01*
X145502442Y-100763084D01*
X145456639Y-100763119D01*
X145460397Y-100609816D01*
X145548246Y-100609816D01*
X145553290Y-100645748D01*
X145568233Y-100676439D01*
X145594023Y-100689037D01*
X145641768Y-100695236D01*
X145693950Y-100691761D01*
X145735623Y-100678436D01*
X145755500Y-100659084D01*
X145763481Y-100620720D01*
X145744783Y-100583167D01*
X145731411Y-100575888D01*
X145690297Y-100566751D01*
X145636521Y-100563180D01*
X145590649Y-100563867D01*
X145561532Y-100568930D01*
X145550177Y-100582778D01*
X145548246Y-100609816D01*
X145460397Y-100609816D01*
X145461029Y-100584035D01*
X145461480Y-100566062D01*
X145464532Y-100475030D01*
X145469220Y-100410594D01*
X145477055Y-100366986D01*
X145489549Y-100338442D01*
X145508212Y-100319196D01*
X145534556Y-100303482D01*
X145558278Y-100294251D01*
X145618507Y-100284076D01*
X145685769Y-100284106D01*
X145747007Y-100293859D01*
X145789164Y-100312855D01*
X145800792Y-100323445D01*
X145805965Y-100340848D01*
X145787237Y-100366093D01*
X145764521Y-100384514D01*
X145741846Y-100380360D01*
X145734179Y-100375116D01*
X145696350Y-100365717D01*
X145646230Y-100364114D01*
X145598598Y-100370057D01*
X145568233Y-100383298D01*
X145556473Y-100402439D01*
X145548246Y-100441593D01*
X145548459Y-100449903D01*
X145554963Y-100469543D01*
X145577124Y-100478055D01*
X145623732Y-100479901D01*
X145661901Y-100481686D01*
X145739780Y-100498282D01*
X145798725Y-100529900D01*
X145832187Y-100573596D01*
X145832389Y-100574129D01*
X145839589Y-100620720D01*
X145841993Y-100636281D01*
X145827900Y-100695047D01*
G36*
X142833102Y-97482083D02*
G01*
X142859904Y-97491943D01*
X142866672Y-97523508D01*
X142856455Y-97555358D01*
X142827234Y-97565665D01*
X142785130Y-97549917D01*
X142774492Y-97540224D01*
X142770535Y-97514583D01*
X142789169Y-97491742D01*
X142824510Y-97481868D01*
X142833102Y-97482083D01*
G37*
X142833102Y-97482083D02*
X142859904Y-97491943D01*
X142866672Y-97523508D01*
X142856455Y-97555358D01*
X142827234Y-97565665D01*
X142785130Y-97549917D01*
X142774492Y-97540224D01*
X142770535Y-97514583D01*
X142789169Y-97491742D01*
X142824510Y-97481868D01*
X142833102Y-97482083D01*
G36*
X142953434Y-100618588D02*
G01*
X142925907Y-100686542D01*
X142881381Y-100735888D01*
X142859536Y-100746979D01*
X142800973Y-100760195D01*
X142732148Y-100762851D01*
X142667005Y-100754922D01*
X142619485Y-100736380D01*
X142597919Y-100719823D01*
X142591690Y-100702656D01*
X142609554Y-100678614D01*
X142622028Y-100665794D01*
X142643795Y-100656740D01*
X142672612Y-100671971D01*
X142726357Y-100693952D01*
X142787818Y-100689226D01*
X142842445Y-100655543D01*
X142855767Y-100641804D01*
X142881535Y-100608453D01*
X142883756Y-100585807D01*
X142860026Y-100571975D01*
X142807942Y-100565063D01*
X142725098Y-100563180D01*
X142566869Y-100563180D01*
X142566869Y-100503238D01*
X142570808Y-100465492D01*
X142650147Y-100465492D01*
X142650280Y-100466176D01*
X142668101Y-100473117D01*
X142710089Y-100478034D01*
X142767860Y-100479901D01*
X142800575Y-100479823D01*
X142848093Y-100478321D01*
X142871902Y-100473113D01*
X142878514Y-100461911D01*
X142874440Y-100442426D01*
X142866429Y-100422122D01*
X142830484Y-100380819D01*
X142781917Y-100363396D01*
X142730166Y-100371604D01*
X142684668Y-100407197D01*
X142682504Y-100409975D01*
X142659580Y-100443627D01*
X142650147Y-100465492D01*
X142570808Y-100465492D01*
X142572773Y-100446659D01*
X142602212Y-100373142D01*
X142651575Y-100318575D01*
X142715484Y-100286537D01*
X142788563Y-100280610D01*
X142865435Y-100304376D01*
X142899825Y-100330467D01*
X142937157Y-100387966D01*
X142958745Y-100460811D01*
X142958822Y-100461911D01*
X142964275Y-100540515D01*
X142953434Y-100618588D01*
G37*
X142953434Y-100618588D02*
X142925907Y-100686542D01*
X142881381Y-100735888D01*
X142859536Y-100746979D01*
X142800973Y-100760195D01*
X142732148Y-100762851D01*
X142667005Y-100754922D01*
X142619485Y-100736380D01*
X142597919Y-100719823D01*
X142591690Y-100702656D01*
X142609554Y-100678614D01*
X142622028Y-100665794D01*
X142643795Y-100656740D01*
X142672612Y-100671971D01*
X142726357Y-100693952D01*
X142787818Y-100689226D01*
X142842445Y-100655543D01*
X142855767Y-100641804D01*
X142881535Y-100608453D01*
X142883756Y-100585807D01*
X142860026Y-100571975D01*
X142807942Y-100565063D01*
X142725098Y-100563180D01*
X142566869Y-100563180D01*
X142566869Y-100503238D01*
X142570808Y-100465492D01*
X142650147Y-100465492D01*
X142650280Y-100466176D01*
X142668101Y-100473117D01*
X142710089Y-100478034D01*
X142767860Y-100479901D01*
X142800575Y-100479823D01*
X142848093Y-100478321D01*
X142871902Y-100473113D01*
X142878514Y-100461911D01*
X142874440Y-100442426D01*
X142866429Y-100422122D01*
X142830484Y-100380819D01*
X142781917Y-100363396D01*
X142730166Y-100371604D01*
X142684668Y-100407197D01*
X142682504Y-100409975D01*
X142659580Y-100443627D01*
X142650147Y-100465492D01*
X142570808Y-100465492D01*
X142572773Y-100446659D01*
X142602212Y-100373142D01*
X142651575Y-100318575D01*
X142715484Y-100286537D01*
X142788563Y-100280610D01*
X142865435Y-100304376D01*
X142899825Y-100330467D01*
X142937157Y-100387966D01*
X142958745Y-100460811D01*
X142958822Y-100461911D01*
X142964275Y-100540515D01*
X142953434Y-100618588D01*
%TO.C,V1*%
G36*
X148800034Y-100087146D02*
G01*
X148842037Y-100108285D01*
X148858068Y-100157202D01*
X148855387Y-100209636D01*
X148826979Y-100257767D01*
X148820774Y-100261446D01*
X148737253Y-100283346D01*
X148646786Y-100273864D01*
X148581153Y-100235835D01*
X148558654Y-100195625D01*
X148567990Y-100138588D01*
X148626608Y-100098277D01*
X148726607Y-100082995D01*
X148800034Y-100087146D01*
G37*
G36*
X153885464Y-99369353D02*
G01*
X153809153Y-99445663D01*
X152025125Y-99445663D01*
X151858995Y-99555934D01*
X151700257Y-99653036D01*
X151511157Y-99741281D01*
X151303634Y-99805551D01*
X151271284Y-99812861D01*
X151108909Y-99835140D01*
X150915199Y-99845286D01*
X150713245Y-99843352D01*
X150526137Y-99829389D01*
X150376963Y-99803450D01*
X150343223Y-99794170D01*
X150141338Y-99721800D01*
X149941844Y-99625702D01*
X149774558Y-99519909D01*
X149754028Y-99504929D01*
X149714059Y-99480961D01*
X149667245Y-99464504D01*
X149602521Y-99454152D01*
X149508820Y-99448498D01*
X149375075Y-99446138D01*
X149190220Y-99445663D01*
X149061347Y-99445538D01*
X148913013Y-99444217D01*
X148809246Y-99440259D01*
X148739482Y-99432229D01*
X148693153Y-99418692D01*
X148659693Y-99398211D01*
X148628537Y-99369353D01*
X148552227Y-99293043D01*
X148552227Y-96336728D01*
X148769852Y-96336728D01*
X148769852Y-99228038D01*
X149425716Y-99228038D01*
X149335136Y-99095908D01*
X149167946Y-98809706D01*
X149044988Y-98490734D01*
X148982744Y-98165484D01*
X148982229Y-98029437D01*
X149207175Y-98029437D01*
X149215111Y-98225401D01*
X149238661Y-98387761D01*
X149242878Y-98405343D01*
X149325460Y-98635990D01*
X149453446Y-98867799D01*
X149615172Y-99084938D01*
X149798974Y-99271574D01*
X149993186Y-99411876D01*
X150062554Y-99450249D01*
X150163856Y-99502242D01*
X150238824Y-99535985D01*
X150324320Y-99568481D01*
X150324320Y-99530555D01*
X150541945Y-99530555D01*
X150545644Y-99590660D01*
X150569768Y-99625016D01*
X150631327Y-99632199D01*
X150706913Y-99634932D01*
X150810091Y-99644579D01*
X150885312Y-99649473D01*
X150977196Y-99643967D01*
X151057697Y-99630659D01*
X151155960Y-99614633D01*
X151215868Y-99600580D01*
X151249875Y-99566930D01*
X151257000Y-99494193D01*
X151257000Y-99390094D01*
X151124871Y-99420346D01*
X151033542Y-99433532D01*
X150902508Y-99440987D01*
X150767343Y-99439754D01*
X150541945Y-99428910D01*
X150541945Y-99530555D01*
X150324320Y-99530555D01*
X150324320Y-99402066D01*
X150324377Y-99389044D01*
X150334882Y-99268384D01*
X150368351Y-99200414D01*
X150431752Y-99178180D01*
X150532052Y-99194728D01*
X150614587Y-99212245D01*
X150804149Y-99226360D01*
X151008472Y-99214502D01*
X151200293Y-99177380D01*
X151267140Y-99160176D01*
X151372035Y-99147411D01*
X151435305Y-99171737D01*
X151466365Y-99239288D01*
X151474626Y-99356202D01*
X151475562Y-99390094D01*
X151476075Y-99408682D01*
X151484501Y-99479797D01*
X151497943Y-99507550D01*
X151522506Y-99498932D01*
X151588656Y-99466177D01*
X151676707Y-99417400D01*
X151677280Y-99417069D01*
X151910703Y-99248536D01*
X152117872Y-99032944D01*
X152288150Y-98783392D01*
X152410903Y-98512982D01*
X152435064Y-98431884D01*
X152474217Y-98201339D01*
X152482978Y-97950877D01*
X152461381Y-97705002D01*
X152409460Y-97488221D01*
X152345945Y-97326963D01*
X152188236Y-97044337D01*
X151986537Y-96805294D01*
X151741386Y-96610539D01*
X151590181Y-96523818D01*
X151310188Y-96413974D01*
X151022050Y-96358773D01*
X150732673Y-96355564D01*
X150448968Y-96401693D01*
X150177843Y-96494509D01*
X149926206Y-96631359D01*
X149700965Y-96809591D01*
X149509029Y-97026551D01*
X149357307Y-97279588D01*
X149252707Y-97566049D01*
X149236336Y-97642539D01*
X149214401Y-97826329D01*
X149207175Y-98029437D01*
X148982229Y-98029437D01*
X148981500Y-97837118D01*
X149041538Y-97508797D01*
X149163144Y-97183683D01*
X149173126Y-97163155D01*
X149291906Y-96967242D01*
X149449081Y-96768649D01*
X149627674Y-96586842D01*
X149810703Y-96441285D01*
X149965617Y-96336960D01*
X151707796Y-96336960D01*
X151816609Y-96402671D01*
X151926607Y-96474473D01*
X152175883Y-96685362D01*
X152379322Y-96930753D01*
X152535396Y-97203664D01*
X152642575Y-97497111D01*
X152699331Y-97804112D01*
X152701579Y-97950877D01*
X152704133Y-98117683D01*
X152655453Y-98430841D01*
X152551761Y-98736604D01*
X152391528Y-99027988D01*
X152257381Y-99228038D01*
X153744148Y-99228038D01*
X153744148Y-98732941D01*
X153459865Y-98724002D01*
X153346185Y-98718239D01*
X153221871Y-98701416D01*
X153148901Y-98672111D01*
X153121022Y-98627271D01*
X153131983Y-98563842D01*
X153136014Y-98555430D01*
X153161350Y-98534060D01*
X153214039Y-98521106D01*
X153305668Y-98514702D01*
X153447824Y-98512982D01*
X153744148Y-98512982D01*
X153744148Y-98297609D01*
X153441027Y-98288710D01*
X153384815Y-98287028D01*
X153265290Y-98282181D01*
X153192326Y-98274546D01*
X153154433Y-98260842D01*
X153140123Y-98237784D01*
X153137906Y-98202089D01*
X153138032Y-98187672D01*
X153143253Y-98156871D01*
X153164673Y-98137534D01*
X153213783Y-98126376D01*
X153302072Y-98120115D01*
X153441027Y-98115467D01*
X153744148Y-98106569D01*
X153744148Y-97891195D01*
X153447824Y-97891195D01*
X153398759Y-97891058D01*
X153273124Y-97888116D01*
X153194508Y-97879926D01*
X153151323Y-97864621D01*
X153131983Y-97840336D01*
X153120691Y-97796086D01*
X153134760Y-97745313D01*
X153191812Y-97711106D01*
X153298096Y-97690412D01*
X153459865Y-97680176D01*
X153744148Y-97671237D01*
X153744148Y-97489367D01*
X153459865Y-97480428D01*
X153346185Y-97474664D01*
X153221871Y-97457842D01*
X153148901Y-97428537D01*
X153121022Y-97383697D01*
X153131983Y-97320268D01*
X153136014Y-97311856D01*
X153161350Y-97290486D01*
X153214039Y-97277532D01*
X153305668Y-97271128D01*
X153447824Y-97269408D01*
X153744148Y-97269408D01*
X153744148Y-97054035D01*
X153441027Y-97045136D01*
X153384815Y-97043454D01*
X153265290Y-97038607D01*
X153192326Y-97030972D01*
X153154433Y-97017268D01*
X153140123Y-96994210D01*
X153137906Y-96958515D01*
X153138032Y-96944098D01*
X153143253Y-96913297D01*
X153164673Y-96893960D01*
X153213783Y-96882802D01*
X153302072Y-96876541D01*
X153441027Y-96871893D01*
X153744148Y-96862995D01*
X153744148Y-96336728D01*
X151707796Y-96336960D01*
X149965617Y-96336960D01*
X149965962Y-96336728D01*
X148769852Y-96336728D01*
X148552227Y-96336728D01*
X148552227Y-96271723D01*
X148628537Y-96195413D01*
X148704847Y-96119102D01*
X153809153Y-96119102D01*
X153961774Y-96271723D01*
X153961774Y-99293043D01*
X153885464Y-99369353D01*
G37*
G36*
X153943245Y-100111594D02*
G01*
X153885464Y-100208765D01*
X153882971Y-100211212D01*
X153784522Y-100267834D01*
X153659138Y-100288683D01*
X153530404Y-100273153D01*
X153421903Y-100220640D01*
X153388480Y-100191485D01*
X153357166Y-100144652D01*
X153343188Y-100076472D01*
X153339987Y-99966601D01*
X153340213Y-99958637D01*
X153542068Y-99958637D01*
X153545918Y-100011342D01*
X153573087Y-100047628D01*
X153643108Y-100061647D01*
X153658559Y-100063080D01*
X153717272Y-100061950D01*
X153740220Y-100032826D01*
X153744148Y-99958637D01*
X153744097Y-99941401D01*
X153738012Y-99876469D01*
X153709930Y-99853568D01*
X153643108Y-99855627D01*
X153586414Y-99864647D01*
X153549942Y-99893243D01*
X153542068Y-99958637D01*
X153340213Y-99958637D01*
X153342559Y-99876145D01*
X153362772Y-99767243D01*
X153411846Y-99702478D01*
X153500111Y-99671333D01*
X153637898Y-99663288D01*
X153725802Y-99664794D01*
X153803718Y-99674714D01*
X153854275Y-99699427D01*
X153897339Y-99745205D01*
X153899645Y-99748185D01*
X153950940Y-99857720D01*
X153962152Y-99958637D01*
X153965272Y-99986717D01*
X153943245Y-100111594D01*
G37*
G36*
X152099484Y-98198801D02*
G01*
X152009287Y-98295357D01*
X149677885Y-98295357D01*
X149581396Y-98185462D01*
X149556688Y-98156087D01*
X149498722Y-98059473D01*
X149494219Y-98001719D01*
X149711751Y-98001719D01*
X149732052Y-98057544D01*
X149740576Y-98062262D01*
X149792528Y-98072357D01*
X149891257Y-98080646D01*
X150039840Y-98087242D01*
X150241355Y-98092261D01*
X150498881Y-98095818D01*
X150815495Y-98098028D01*
X150994158Y-98098614D01*
X151233313Y-98098666D01*
X151448749Y-98097868D01*
X151632772Y-98096293D01*
X151777693Y-98094012D01*
X151875819Y-98091100D01*
X151919460Y-98087627D01*
X151958712Y-98059680D01*
X151966095Y-97989607D01*
X151956511Y-97906740D01*
X150847285Y-97898577D01*
X150751199Y-97897873D01*
X150477519Y-97896001D01*
X150258007Y-97895008D01*
X150086542Y-97895206D01*
X149956999Y-97896906D01*
X149863255Y-97900420D01*
X149799186Y-97906060D01*
X149758671Y-97914137D01*
X149735585Y-97924964D01*
X149723805Y-97938852D01*
X149717208Y-97956113D01*
X149711751Y-98001719D01*
X149494219Y-98001719D01*
X149491524Y-97967151D01*
X149532068Y-97859088D01*
X149552861Y-97820576D01*
X149580145Y-97780606D01*
X149614768Y-97748543D01*
X149662825Y-97723585D01*
X149730406Y-97704926D01*
X149823606Y-97691762D01*
X149948517Y-97683289D01*
X150111232Y-97678703D01*
X150317843Y-97677200D01*
X150574444Y-97677975D01*
X150887127Y-97680224D01*
X152008306Y-97689115D01*
X152098993Y-97790646D01*
X152139619Y-97842925D01*
X152188171Y-97963276D01*
X152185220Y-97989607D01*
X152174793Y-98082658D01*
X152099484Y-98198801D01*
G37*
G36*
X154257123Y-100534979D02*
G01*
X154236049Y-100556353D01*
X154162002Y-100620894D01*
X154101676Y-100659662D01*
X154101249Y-100659820D01*
X154059197Y-100663579D01*
X153959648Y-100667043D01*
X153807101Y-100670180D01*
X153606054Y-100672959D01*
X153361006Y-100675348D01*
X153076457Y-100677316D01*
X152756905Y-100678833D01*
X152406850Y-100679865D01*
X152030789Y-100680383D01*
X151633223Y-100680355D01*
X151218650Y-100679749D01*
X148397802Y-100673692D01*
X148163610Y-100439486D01*
X148163610Y-98207491D01*
X148365691Y-98207491D01*
X148365719Y-98507019D01*
X148365913Y-98885682D01*
X148366389Y-99209637D01*
X148367259Y-99483283D01*
X148368638Y-99711017D01*
X148370637Y-99897236D01*
X148373371Y-100046337D01*
X148376951Y-100162719D01*
X148381491Y-100250779D01*
X148387104Y-100314915D01*
X148393903Y-100359523D01*
X148402001Y-100389001D01*
X148411511Y-100407747D01*
X148422545Y-100420159D01*
X148434687Y-100428318D01*
X148456349Y-100436234D01*
X148490447Y-100443131D01*
X148540807Y-100449078D01*
X148611255Y-100454145D01*
X148705618Y-100458399D01*
X148827723Y-100461912D01*
X148981394Y-100464751D01*
X149170460Y-100466987D01*
X149398745Y-100468689D01*
X149670078Y-100469926D01*
X149988283Y-100470767D01*
X150357188Y-100471283D01*
X150780619Y-100471541D01*
X151262402Y-100471612D01*
X151566272Y-100471596D01*
X152009586Y-100471474D01*
X152396962Y-100471163D01*
X152732256Y-100470585D01*
X153019323Y-100469665D01*
X153262020Y-100468323D01*
X153464201Y-100466484D01*
X153629723Y-100464069D01*
X153762441Y-100461002D01*
X153866212Y-100457204D01*
X153944891Y-100452599D01*
X154002334Y-100447110D01*
X154042396Y-100440658D01*
X154068933Y-100433167D01*
X154085802Y-100424559D01*
X154096858Y-100414757D01*
X154097537Y-100413993D01*
X154107477Y-100398317D01*
X154116040Y-100372828D01*
X154123328Y-100333160D01*
X154129441Y-100274951D01*
X154134481Y-100193837D01*
X154138549Y-100085453D01*
X154141746Y-99945437D01*
X154144173Y-99769425D01*
X154145933Y-99553052D01*
X154147125Y-99291956D01*
X154147851Y-98981772D01*
X154148212Y-98618137D01*
X154148310Y-98196687D01*
X154148282Y-97897159D01*
X154148088Y-97518496D01*
X154147612Y-97194541D01*
X154146741Y-96920895D01*
X154145363Y-96693161D01*
X154143363Y-96506942D01*
X154140630Y-96357841D01*
X154137050Y-96241458D01*
X154132510Y-96153399D01*
X154126897Y-96089263D01*
X154120098Y-96044655D01*
X154112000Y-96015177D01*
X154102490Y-95996430D01*
X154091456Y-95984019D01*
X154079314Y-95975860D01*
X154057651Y-95967944D01*
X154023553Y-95961046D01*
X153973194Y-95955099D01*
X153902745Y-95950033D01*
X153808382Y-95945779D01*
X153686278Y-95942266D01*
X153532607Y-95939427D01*
X153343541Y-95937191D01*
X153115255Y-95935489D01*
X152843923Y-95934252D01*
X152525717Y-95933410D01*
X152156812Y-95932895D01*
X151733381Y-95932637D01*
X151251599Y-95932566D01*
X150947729Y-95932582D01*
X150504414Y-95932704D01*
X150117038Y-95933015D01*
X149781745Y-95933593D01*
X149494677Y-95934513D01*
X149251981Y-95935855D01*
X149049800Y-95937694D01*
X148884278Y-95940109D01*
X148751559Y-95943176D01*
X148647789Y-95946974D01*
X148569110Y-95951579D01*
X148511667Y-95957068D01*
X148471605Y-95963520D01*
X148445067Y-95971011D01*
X148428199Y-95979619D01*
X148417143Y-95989421D01*
X148416464Y-95990185D01*
X148406524Y-96005861D01*
X148397960Y-96031350D01*
X148390673Y-96071018D01*
X148384560Y-96129227D01*
X148379520Y-96210341D01*
X148375452Y-96318725D01*
X148372255Y-96458741D01*
X148369827Y-96634753D01*
X148368068Y-96851126D01*
X148366876Y-97112222D01*
X148366150Y-97422406D01*
X148365789Y-97786041D01*
X148365691Y-98207491D01*
X148163610Y-98207491D01*
X148163610Y-95959194D01*
X148295051Y-95836586D01*
X148426493Y-95713979D01*
X151271346Y-95722232D01*
X154116198Y-95730486D01*
X154233295Y-95847589D01*
X154350391Y-95964692D01*
X154350391Y-100436439D01*
X154257123Y-100534979D01*
G37*
G36*
X153122361Y-99971926D02*
G01*
X153121378Y-100040496D01*
X153112141Y-100122772D01*
X153087453Y-100175871D01*
X153040445Y-100220640D01*
X152999505Y-100247951D01*
X152947931Y-100267221D01*
X152874724Y-100278486D01*
X152766377Y-100283765D01*
X152609387Y-100285075D01*
X152459945Y-100283928D01*
X152349177Y-100278931D01*
X152274322Y-100268063D01*
X152221874Y-100249306D01*
X152178329Y-100220640D01*
X152144906Y-100191485D01*
X152113592Y-100144652D01*
X152099614Y-100076472D01*
X152096413Y-99966601D01*
X152097512Y-99885309D01*
X152099666Y-99865369D01*
X152298494Y-99865369D01*
X152298494Y-100051905D01*
X152601615Y-100060804D01*
X152904736Y-100069702D01*
X152904736Y-99847573D01*
X152298494Y-99865369D01*
X152099666Y-99865369D01*
X152107261Y-99795064D01*
X152134649Y-99733285D01*
X152188579Y-99694596D01*
X152277954Y-99673618D01*
X152411680Y-99664975D01*
X152598661Y-99663288D01*
X152729970Y-99664079D01*
X152885995Y-99670698D01*
X152994208Y-99688380D01*
X153063281Y-99722233D01*
X153101884Y-99777369D01*
X153116353Y-99847573D01*
X153118687Y-99858896D01*
X153122361Y-99971926D01*
G37*
G36*
X149715018Y-100083545D02*
G01*
X149841873Y-100086059D01*
X149925053Y-100091696D01*
X149974083Y-100101610D01*
X149998488Y-100116958D01*
X150007795Y-100138895D01*
X150008108Y-100173060D01*
X149981097Y-100239935D01*
X149967823Y-100251296D01*
X149922941Y-100267539D01*
X149844117Y-100277933D01*
X149721962Y-100283453D01*
X149547086Y-100285075D01*
X149391300Y-100283584D01*
X149250591Y-100276320D01*
X149157627Y-100260720D01*
X149104525Y-100234283D01*
X149083402Y-100194508D01*
X149086377Y-100138895D01*
X149094819Y-100118044D01*
X149118083Y-100102344D01*
X149165416Y-100092145D01*
X149246343Y-100086291D01*
X149370391Y-100083626D01*
X149547086Y-100082995D01*
X149715018Y-100083545D01*
G37*
%TD*%
M02*
