%TF.GenerationSoftware,KiCad,Pcbnew,6.0.6-3a73a75311~116~ubuntu20.04.1*%
%TF.CreationDate,2022-07-03T10:11:37+02:00*%
%TF.ProjectId,MD_Mod,4d445f4d-6f64-42e6-9b69-6361645f7063,rev?*%
%TF.SameCoordinates,Original*%
%TF.FileFunction,Copper,L1,Top*%
%TF.FilePolarity,Positive*%
%FSLAX46Y46*%
G04 Gerber Fmt 4.6, Leading zero omitted, Abs format (unit mm)*
G04 Created by KiCad (PCBNEW 6.0.6-3a73a75311~116~ubuntu20.04.1) date 2022-07-03 10:11:37*
%MOMM*%
%LPD*%
G01*
G04 APERTURE LIST*
G04 Aperture macros list*
%AMRoundRect*
0 Rectangle with rounded corners*
0 $1 Rounding radius*
0 $2 $3 $4 $5 $6 $7 $8 $9 X,Y pos of 4 corners*
0 Add a 4 corners polygon primitive as box body*
4,1,4,$2,$3,$4,$5,$6,$7,$8,$9,$2,$3,0*
0 Add four circle primitives for the rounded corners*
1,1,$1+$1,$2,$3*
1,1,$1+$1,$4,$5*
1,1,$1+$1,$6,$7*
1,1,$1+$1,$8,$9*
0 Add four rect primitives between the rounded corners*
20,1,$1+$1,$2,$3,$4,$5,0*
20,1,$1+$1,$4,$5,$6,$7,0*
20,1,$1+$1,$6,$7,$8,$9,0*
20,1,$1+$1,$8,$9,$2,$3,0*%
%AMFreePoly0*
4,1,6,1.000000,0.000000,0.500000,-0.750000,-0.500000,-0.750000,-0.500000,0.750000,0.500000,0.750000,1.000000,0.000000,1.000000,0.000000,$1*%
%AMFreePoly1*
4,1,7,0.700000,0.000000,1.200000,-0.750000,-1.200000,-0.750000,-0.700000,0.000000,-1.200000,0.750000,1.200000,0.750000,0.700000,0.000000,0.700000,0.000000,$1*%
%AMFreePoly2*
4,1,6,0.500000,-0.750000,-0.650000,-0.750000,-0.150000,0.000000,-0.650000,0.750000,0.500000,0.750000,0.500000,-0.750000,0.500000,-0.750000,$1*%
G04 Aperture macros list end*
%TA.AperFunction,SMDPad,CuDef*%
%ADD10RoundRect,0.500000X-1.000000X-0.500000X1.000000X-0.500000X1.000000X0.500000X-1.000000X0.500000X0*%
%TD*%
%TA.AperFunction,SMDPad,CuDef*%
%ADD11FreePoly0,0.000000*%
%TD*%
%TA.AperFunction,SMDPad,CuDef*%
%ADD12FreePoly1,0.000000*%
%TD*%
%TA.AperFunction,SMDPad,CuDef*%
%ADD13FreePoly0,180.000000*%
%TD*%
%TA.AperFunction,SMDPad,CuDef*%
%ADD14RoundRect,0.250000X-0.350000X-0.450000X0.350000X-0.450000X0.350000X0.450000X-0.350000X0.450000X0*%
%TD*%
%TA.AperFunction,SMDPad,CuDef*%
%ADD15FreePoly2,0.000000*%
%TD*%
%TA.AperFunction,SMDPad,CuDef*%
%ADD16RoundRect,0.150000X-0.825000X-0.150000X0.825000X-0.150000X0.825000X0.150000X-0.825000X0.150000X0*%
%TD*%
%TA.AperFunction,SMDPad,CuDef*%
%ADD17RoundRect,0.250000X-0.337500X-0.475000X0.337500X-0.475000X0.337500X0.475000X-0.337500X0.475000X0*%
%TD*%
%TA.AperFunction,Conductor*%
%ADD18C,0.400000*%
%TD*%
%TA.AperFunction,Conductor*%
%ADD19C,0.250000*%
%TD*%
G04 APERTURE END LIST*
D10*
%TO.P,J11,1,Pin_1*%
%TO.N,_VIDEO*%
X154940000Y-112268000D03*
%TD*%
%TO.P,J10,1,Pin_1*%
%TO.N,_LANGUAGE*%
X154940000Y-109220000D03*
%TD*%
%TO.P,J12,1,Pin_1*%
%TO.N,Net-(J12-Pad1)*%
X139700000Y-103124000D03*
%TD*%
%TO.P,J1,1,Pin_1*%
%TO.N,VCC*%
X145796000Y-97028000D03*
%TD*%
%TO.P,J5,1,Pin_1*%
%TO.N,RED*%
X139700000Y-106172000D03*
%TD*%
D11*
%TO.P,JP2,1,A*%
%TO.N,GND*%
X138716000Y-97383600D03*
D12*
%TO.P,JP2,2,C*%
%TO.N,LED_TYPE*%
X140716000Y-97383600D03*
D13*
%TO.P,JP2,3,B*%
%TO.N,VCC*%
X142716000Y-97383600D03*
%TD*%
D10*
%TO.P,J7,1,Pin_1*%
%TO.N,RESET_OUT*%
X154940000Y-106172000D03*
%TD*%
D14*
%TO.P,R1,1*%
%TO.N,Net-(J12-Pad1)*%
X138700000Y-100457000D03*
%TO.P,R1,2*%
%TO.N,LED_TYPE*%
X140700000Y-100457000D03*
%TD*%
D11*
%TO.P,JP1,1,A*%
%TO.N,MCD_MODE*%
X146595000Y-112323000D03*
D15*
%TO.P,JP1,2,B*%
%TO.N,GND*%
X148045000Y-112323000D03*
%TD*%
D10*
%TO.P,J2,1,Pin_1*%
%TO.N,GND*%
X149987000Y-97028000D03*
%TD*%
D16*
%TO.P,U1,1,PB5*%
%TO.N,LED_TYPE*%
X144845000Y-102108000D03*
%TO.P,U1,2,PB6*%
%TO.N,MCD_MODE*%
X144845000Y-103378000D03*
%TO.P,U1,3,PB7*%
%TO.N,unconnected-(U1-Pad3)*%
X144845000Y-104648000D03*
%TO.P,U1,4,VDD*%
%TO.N,VCC*%
X144845000Y-105918000D03*
%TO.P,U1,5,PA7*%
%TO.N,RED*%
X144845000Y-107188000D03*
%TO.P,U1,6,PA6*%
%TO.N,GREEN*%
X144845000Y-108458000D03*
%TO.P,U1,7,PA5*%
%TO.N,BLUE*%
X144845000Y-109728000D03*
%TO.P,U1,8,PA3*%
%TO.N,_VIDEO*%
X149795000Y-109728000D03*
%TO.P,U1,9,PA4*%
%TO.N,_LANGUAGE*%
X149795000Y-108458000D03*
%TO.P,U1,10,PA0*%
%TO.N,RESET_OUT*%
X149795000Y-107188000D03*
%TO.P,U1,11,GND*%
%TO.N,GND*%
X149795000Y-105918000D03*
%TO.P,U1,12,PB0*%
%TO.N,BUTTON*%
X149795000Y-104648000D03*
%TO.P,U1,13,PB1*%
%TO.N,VIDEO*%
X149795000Y-103378000D03*
%TO.P,U1,14,PB2*%
%TO.N,LANGUAGE*%
X149795000Y-102108000D03*
%TD*%
D10*
%TO.P,J8,1,Pin_1*%
%TO.N,LANGUAGE*%
X154940000Y-97028000D03*
%TD*%
%TO.P,J4,1,Pin_1*%
%TO.N,GREEN*%
X139700000Y-109220000D03*
%TD*%
%TO.P,J3,1,Pin_1*%
%TO.N,BLUE*%
X139700000Y-112268000D03*
%TD*%
%TO.P,J9,1,Pin_1*%
%TO.N,VIDEO*%
X154940000Y-100076000D03*
%TD*%
%TO.P,J6,1,Pin_1*%
%TO.N,BUTTON*%
X154940000Y-103124000D03*
%TD*%
D17*
%TO.P,C1,1*%
%TO.N,VCC*%
X146293250Y-99949000D03*
%TO.P,C1,2*%
%TO.N,GND*%
X148368250Y-99949000D03*
%TD*%
D18*
%TO.N,VCC*%
X142716000Y-97383600D02*
X145440400Y-97383600D01*
X146293250Y-97779250D02*
X145796000Y-97282000D01*
X146558000Y-100213750D02*
X146293250Y-99949000D01*
X146293250Y-99949000D02*
X146293250Y-97525250D01*
X145796000Y-105918000D02*
X146558000Y-105156000D01*
X144845000Y-105918000D02*
X145796000Y-105918000D01*
X146558000Y-105156000D02*
X146558000Y-100213750D01*
X145440400Y-97383600D02*
X145796000Y-97028000D01*
X146293250Y-97525250D02*
X145796000Y-97028000D01*
%TO.N,GND*%
X148172000Y-100145250D02*
X148368250Y-99949000D01*
X149987000Y-97028000D02*
X149860000Y-97028000D01*
X148172000Y-105754000D02*
X148172000Y-100145250D01*
X149860000Y-97028000D02*
X148368250Y-98519750D01*
X148368250Y-99949000D02*
X148368250Y-98519750D01*
X148172000Y-112323000D02*
X148172000Y-105754000D01*
X149795000Y-105918000D02*
X148336000Y-105918000D01*
X148336000Y-105918000D02*
X148172000Y-105754000D01*
D19*
%TO.N,RED*%
X144845000Y-107188000D02*
X140716000Y-107188000D01*
X140716000Y-107188000D02*
X139700000Y-106172000D01*
%TO.N,GREEN*%
X144845000Y-108458000D02*
X140462000Y-108458000D01*
X140462000Y-108458000D02*
X139700000Y-109220000D01*
%TO.N,BLUE*%
X144845000Y-109728000D02*
X142240000Y-109728000D01*
X142240000Y-109728000D02*
X139700000Y-112268000D01*
%TO.N,BUTTON*%
X154305000Y-103124000D02*
X154940000Y-103124000D01*
X153416000Y-104648000D02*
X154940000Y-103124000D01*
X149795000Y-104648000D02*
X153416000Y-104648000D01*
%TO.N,RESET_OUT*%
X154305000Y-106172000D02*
X154940000Y-106172000D01*
X153289000Y-107188000D02*
X154305000Y-106172000D01*
X149795000Y-107188000D02*
X153289000Y-107188000D01*
%TO.N,LANGUAGE*%
X149795000Y-102108000D02*
X149795000Y-101538000D01*
X154305000Y-97028000D02*
X154940000Y-97028000D01*
X149795000Y-101538000D02*
X154305000Y-97028000D01*
%TO.N,VIDEO*%
X154432000Y-100076000D02*
X154940000Y-100076000D01*
X149795000Y-103378000D02*
X151130000Y-103378000D01*
X151130000Y-103378000D02*
X154432000Y-100076000D01*
%TO.N,_LANGUAGE*%
X149795000Y-108458000D02*
X154178000Y-108458000D01*
X154178000Y-108458000D02*
X154940000Y-109220000D01*
%TO.N,_VIDEO*%
X149795000Y-109728000D02*
X152400000Y-109728000D01*
X152400000Y-109728000D02*
X154940000Y-112268000D01*
%TO.N,MCD_MODE*%
X143002000Y-103695500D02*
X143319500Y-103378000D01*
X143319500Y-103378000D02*
X144845000Y-103378000D01*
X145221072Y-103378000D02*
X144845000Y-103378000D01*
X143002000Y-106172000D02*
X143002000Y-103695500D01*
X146595000Y-107034500D02*
X146103020Y-106542520D01*
X146595000Y-112323000D02*
X146595000Y-107034500D01*
X143372520Y-106542520D02*
X143002000Y-106172000D01*
X146103020Y-106542520D02*
X143372520Y-106542520D01*
%TO.N,Net-(J12-Pad1)*%
X138700000Y-102124000D02*
X138700000Y-100457000D01*
X139700000Y-103124000D02*
X138700000Y-102124000D01*
%TO.N,LED_TYPE*%
X140700000Y-100568000D02*
X140700000Y-100457000D01*
X140700000Y-100457000D02*
X140700000Y-97399600D01*
X144845000Y-102108000D02*
X142240000Y-102108000D01*
X142240000Y-102108000D02*
X140700000Y-100568000D01*
%TD*%
%TA.AperFunction,Conductor*%
%TO.N,GND*%
G36*
X156180018Y-94617000D02*
G01*
X156194852Y-94619310D01*
X156194855Y-94619310D01*
X156203724Y-94620691D01*
X156213659Y-94619392D01*
X156214746Y-94619250D01*
X156243431Y-94618793D01*
X156316741Y-94626013D01*
X156346212Y-94628916D01*
X156370432Y-94633733D01*
X156489546Y-94669866D01*
X156512355Y-94679315D01*
X156622124Y-94737987D01*
X156642655Y-94751705D01*
X156738876Y-94830671D01*
X156756329Y-94848124D01*
X156835295Y-94944345D01*
X156849013Y-94964876D01*
X156907685Y-95074645D01*
X156917134Y-95097454D01*
X156953267Y-95216568D01*
X156958084Y-95240789D01*
X156967541Y-95336809D01*
X156967091Y-95352868D01*
X156967800Y-95352877D01*
X156967690Y-95361853D01*
X156966309Y-95370724D01*
X156967473Y-95379626D01*
X156967473Y-95379628D01*
X156970436Y-95402283D01*
X156971500Y-95418621D01*
X156971500Y-95841158D01*
X156951498Y-95909279D01*
X156897842Y-95955772D01*
X156827568Y-95965876D01*
X156762988Y-95936382D01*
X156740796Y-95911252D01*
X156723073Y-95884777D01*
X156583223Y-95744927D01*
X156578104Y-95741500D01*
X156578099Y-95741496D01*
X156423996Y-95638334D01*
X156423992Y-95638332D01*
X156418873Y-95634905D01*
X156236284Y-95558900D01*
X156230248Y-95557683D01*
X156230245Y-95557682D01*
X156046996Y-95520733D01*
X156046995Y-95520733D01*
X156042408Y-95519808D01*
X156036328Y-95519500D01*
X153843672Y-95519500D01*
X153837592Y-95519808D01*
X153833005Y-95520733D01*
X153833004Y-95520733D01*
X153649755Y-95557682D01*
X153649752Y-95557683D01*
X153643716Y-95558900D01*
X153461127Y-95634905D01*
X153456008Y-95638332D01*
X153456004Y-95638334D01*
X153301901Y-95741496D01*
X153301896Y-95741500D01*
X153296777Y-95744927D01*
X153156927Y-95884777D01*
X153153500Y-95889896D01*
X153153496Y-95889901D01*
X153050334Y-96044004D01*
X153050332Y-96044008D01*
X153046905Y-96049127D01*
X152970900Y-96231716D01*
X152969684Y-96237748D01*
X152969682Y-96237755D01*
X152932897Y-96420189D01*
X152931808Y-96425592D01*
X152931500Y-96431672D01*
X152931500Y-97453405D01*
X152911498Y-97521526D01*
X152894595Y-97542500D01*
X149628077Y-100809018D01*
X149565765Y-100843044D01*
X149494950Y-100837979D01*
X149438114Y-100795432D01*
X149413303Y-100728912D01*
X149419389Y-100680255D01*
X149450888Y-100585290D01*
X149453755Y-100571914D01*
X149463422Y-100477562D01*
X149463750Y-100471146D01*
X149463750Y-100221115D01*
X149459275Y-100205876D01*
X149457885Y-100204671D01*
X149450202Y-100203000D01*
X148640365Y-100203000D01*
X148625126Y-100207475D01*
X148623921Y-100208865D01*
X148622250Y-100216548D01*
X148622250Y-101163884D01*
X148626725Y-101179123D01*
X148643214Y-101193411D01*
X148681598Y-101253137D01*
X148681598Y-101324134D01*
X148643215Y-101383860D01*
X148624854Y-101397081D01*
X148563193Y-101433547D01*
X148445547Y-101551193D01*
X148441511Y-101558017D01*
X148441509Y-101558020D01*
X148393522Y-101639162D01*
X148360855Y-101694399D01*
X148314438Y-101854169D01*
X148313934Y-101860574D01*
X148313933Y-101860579D01*
X148311693Y-101889042D01*
X148311500Y-101891498D01*
X148311500Y-102324502D01*
X148311693Y-102326950D01*
X148311693Y-102326958D01*
X148312277Y-102334372D01*
X148314438Y-102361831D01*
X148360855Y-102521601D01*
X148445547Y-102664807D01*
X148448229Y-102667489D01*
X148473502Y-102731861D01*
X148459600Y-102801484D01*
X148449428Y-102817312D01*
X148445547Y-102821193D01*
X148360855Y-102964399D01*
X148314438Y-103124169D01*
X148311500Y-103161498D01*
X148311500Y-103594502D01*
X148311693Y-103596950D01*
X148311693Y-103596958D01*
X148312546Y-103607789D01*
X148314438Y-103631831D01*
X148360855Y-103791601D01*
X148445547Y-103934807D01*
X148448229Y-103937489D01*
X148473502Y-104001861D01*
X148459600Y-104071484D01*
X148449428Y-104087312D01*
X148445547Y-104091193D01*
X148360855Y-104234399D01*
X148358644Y-104242010D01*
X148358643Y-104242012D01*
X148348300Y-104277614D01*
X148314438Y-104394169D01*
X148313934Y-104400574D01*
X148313933Y-104400579D01*
X148313422Y-104407073D01*
X148311500Y-104431498D01*
X148311500Y-104864502D01*
X148311693Y-104866950D01*
X148311693Y-104866958D01*
X148313766Y-104893289D01*
X148314438Y-104901831D01*
X148343472Y-105001769D01*
X148350052Y-105024415D01*
X148360855Y-105061601D01*
X148364892Y-105068427D01*
X148438702Y-105193232D01*
X148445547Y-105204807D01*
X148448487Y-105207747D01*
X148473820Y-105272266D01*
X148459921Y-105341889D01*
X148447874Y-105360636D01*
X148441910Y-105368324D01*
X148365352Y-105497779D01*
X148359107Y-105512210D01*
X148320061Y-105646605D01*
X148320101Y-105660706D01*
X148327370Y-105664000D01*
X151256878Y-105664000D01*
X151270409Y-105660027D01*
X151271544Y-105652129D01*
X151230893Y-105512210D01*
X151224648Y-105497779D01*
X151209189Y-105471639D01*
X151191730Y-105402823D01*
X151214247Y-105335491D01*
X151269591Y-105291022D01*
X151317643Y-105281500D01*
X152835956Y-105281500D01*
X152904077Y-105301502D01*
X152950570Y-105355158D01*
X152959470Y-105432404D01*
X152931808Y-105569592D01*
X152931500Y-105575672D01*
X152931500Y-106428500D01*
X152911498Y-106496621D01*
X152857842Y-106543114D01*
X152805500Y-106554500D01*
X151317643Y-106554500D01*
X151249522Y-106534498D01*
X151203029Y-106480842D01*
X151192925Y-106410568D01*
X151209189Y-106364361D01*
X151224648Y-106338221D01*
X151230893Y-106323790D01*
X151269939Y-106189395D01*
X151269899Y-106175294D01*
X151262630Y-106172000D01*
X148333122Y-106172000D01*
X148319591Y-106175973D01*
X148318456Y-106183871D01*
X148359107Y-106323790D01*
X148365352Y-106338221D01*
X148441911Y-106467677D01*
X148447871Y-106475360D01*
X148473820Y-106541444D01*
X148459922Y-106611067D01*
X148449579Y-106627161D01*
X148445547Y-106631193D01*
X148360855Y-106774399D01*
X148314438Y-106934169D01*
X148311500Y-106971498D01*
X148311500Y-107404502D01*
X148314438Y-107441831D01*
X148360855Y-107601601D01*
X148445547Y-107744807D01*
X148448229Y-107747489D01*
X148473502Y-107811861D01*
X148459600Y-107881484D01*
X148449428Y-107897312D01*
X148445547Y-107901193D01*
X148360855Y-108044399D01*
X148314438Y-108204169D01*
X148311500Y-108241498D01*
X148311500Y-108674502D01*
X148314438Y-108711831D01*
X148360855Y-108871601D01*
X148445547Y-109014807D01*
X148448229Y-109017489D01*
X148473502Y-109081861D01*
X148459600Y-109151484D01*
X148449428Y-109167312D01*
X148445547Y-109171193D01*
X148360855Y-109314399D01*
X148314438Y-109474169D01*
X148311500Y-109511498D01*
X148311500Y-109944502D01*
X148314438Y-109981831D01*
X148360855Y-110141601D01*
X148364892Y-110148427D01*
X148441509Y-110277980D01*
X148441511Y-110277983D01*
X148445547Y-110284807D01*
X148563193Y-110402453D01*
X148570017Y-110406489D01*
X148570020Y-110406491D01*
X148570614Y-110406842D01*
X148706399Y-110487145D01*
X148714010Y-110489356D01*
X148714012Y-110489357D01*
X148746210Y-110498711D01*
X148866169Y-110533562D01*
X148872574Y-110534066D01*
X148872579Y-110534067D01*
X148901042Y-110536307D01*
X148901050Y-110536307D01*
X148903498Y-110536500D01*
X150686502Y-110536500D01*
X150688950Y-110536307D01*
X150688958Y-110536307D01*
X150717421Y-110534067D01*
X150717426Y-110534066D01*
X150723831Y-110533562D01*
X150843790Y-110498711D01*
X150875988Y-110489357D01*
X150875990Y-110489356D01*
X150883601Y-110487145D01*
X151019386Y-110406842D01*
X151019980Y-110406491D01*
X151019983Y-110406489D01*
X151026807Y-110402453D01*
X151032416Y-110396844D01*
X151038675Y-110391989D01*
X151039844Y-110393496D01*
X151093167Y-110364379D01*
X151119950Y-110361500D01*
X152085406Y-110361500D01*
X152153527Y-110381502D01*
X152174501Y-110398405D01*
X152992645Y-111216549D01*
X153026671Y-111278861D01*
X153019874Y-111354064D01*
X152970900Y-111471716D01*
X152969683Y-111477752D01*
X152969682Y-111477755D01*
X152949569Y-111577506D01*
X152931808Y-111665592D01*
X152931500Y-111671672D01*
X152931500Y-112864328D01*
X152931808Y-112870408D01*
X152970900Y-113064284D01*
X153046905Y-113246873D01*
X153050332Y-113251992D01*
X153050334Y-113251996D01*
X153153496Y-113406099D01*
X153153500Y-113406104D01*
X153156927Y-113411223D01*
X153296777Y-113551073D01*
X153301896Y-113554500D01*
X153301901Y-113554504D01*
X153456004Y-113657666D01*
X153456008Y-113657668D01*
X153461127Y-113661095D01*
X153497358Y-113676177D01*
X153552559Y-113720820D01*
X153574862Y-113788222D01*
X153557185Y-113856983D01*
X153505138Y-113905271D01*
X153448935Y-113918500D01*
X141191065Y-113918500D01*
X141122944Y-113898498D01*
X141076451Y-113844842D01*
X141066347Y-113774568D01*
X141095841Y-113709988D01*
X141142641Y-113676177D01*
X141178873Y-113661095D01*
X141183992Y-113657668D01*
X141183996Y-113657666D01*
X141338099Y-113554504D01*
X141338104Y-113554500D01*
X141343223Y-113551073D01*
X141483073Y-113411223D01*
X141486500Y-113406104D01*
X141486504Y-113406099D01*
X141589666Y-113251996D01*
X141589668Y-113251992D01*
X141593095Y-113246873D01*
X141669100Y-113064284D01*
X141708192Y-112870408D01*
X141708500Y-112864328D01*
X141708500Y-111671672D01*
X141708192Y-111665592D01*
X141690431Y-111577506D01*
X141670318Y-111477755D01*
X141670317Y-111477752D01*
X141669100Y-111471716D01*
X141620126Y-111354064D01*
X141612413Y-111283490D01*
X141647355Y-111216549D01*
X142465499Y-110398405D01*
X142527811Y-110364379D01*
X142554594Y-110361500D01*
X143520050Y-110361500D01*
X143588171Y-110381502D01*
X143601271Y-110392059D01*
X143601325Y-110391989D01*
X143607584Y-110396844D01*
X143613193Y-110402453D01*
X143620017Y-110406489D01*
X143620020Y-110406491D01*
X143620614Y-110406842D01*
X143756399Y-110487145D01*
X143764010Y-110489356D01*
X143764012Y-110489357D01*
X143796210Y-110498711D01*
X143916169Y-110533562D01*
X143922574Y-110534066D01*
X143922579Y-110534067D01*
X143951042Y-110536307D01*
X143951050Y-110536307D01*
X143953498Y-110536500D01*
X145736502Y-110536500D01*
X145738950Y-110536307D01*
X145738958Y-110536307D01*
X145767421Y-110534067D01*
X145767426Y-110534066D01*
X145773831Y-110533562D01*
X145800349Y-110525858D01*
X145871342Y-110526060D01*
X145930959Y-110564614D01*
X145960268Y-110629278D01*
X145961500Y-110646855D01*
X145961500Y-110989637D01*
X145941498Y-111057758D01*
X145888522Y-111103660D01*
X145881589Y-111105696D01*
X145874008Y-111110568D01*
X145766159Y-111179878D01*
X145766156Y-111179880D01*
X145758579Y-111184750D01*
X145752678Y-111191560D01*
X145668726Y-111288445D01*
X145668724Y-111288448D01*
X145662824Y-111295257D01*
X145602081Y-111428266D01*
X145581271Y-111573000D01*
X145581271Y-113073000D01*
X145586500Y-113146111D01*
X145593383Y-113169552D01*
X145616087Y-113246873D01*
X145627696Y-113286411D01*
X145632567Y-113293990D01*
X145701878Y-113401841D01*
X145701880Y-113401844D01*
X145706750Y-113409421D01*
X145713560Y-113415322D01*
X145810445Y-113499274D01*
X145810448Y-113499276D01*
X145817257Y-113505176D01*
X145950266Y-113565919D01*
X146095000Y-113586729D01*
X147095000Y-113586729D01*
X147096964Y-113586605D01*
X147096968Y-113586605D01*
X147153080Y-113583066D01*
X147153084Y-113583065D01*
X147159557Y-113582657D01*
X147300528Y-113543824D01*
X147308188Y-113539081D01*
X147308191Y-113539080D01*
X147417187Y-113471594D01*
X147417189Y-113471593D01*
X147424850Y-113466849D01*
X147522448Y-113357966D01*
X148022448Y-112607966D01*
X148031782Y-112593442D01*
X148090282Y-112459431D01*
X148108656Y-112314368D01*
X148085418Y-112170004D01*
X148022448Y-112038034D01*
X147522448Y-111288034D01*
X147483250Y-111236579D01*
X147437264Y-111196732D01*
X147379555Y-111146726D01*
X147379552Y-111146724D01*
X147372743Y-111140824D01*
X147302158Y-111108589D01*
X147248502Y-111062096D01*
X147228500Y-110993975D01*
X147228500Y-107113267D01*
X147229027Y-107102084D01*
X147230702Y-107094591D01*
X147228562Y-107026500D01*
X147228500Y-107022543D01*
X147228500Y-106994644D01*
X147227996Y-106990653D01*
X147227063Y-106978811D01*
X147226834Y-106971498D01*
X147225674Y-106934611D01*
X147223462Y-106926997D01*
X147223461Y-106926992D01*
X147220023Y-106915159D01*
X147216012Y-106895795D01*
X147214467Y-106883564D01*
X147213474Y-106875703D01*
X147210557Y-106868336D01*
X147210556Y-106868331D01*
X147197198Y-106834592D01*
X147193354Y-106823365D01*
X147183230Y-106788522D01*
X147181018Y-106780907D01*
X147170707Y-106763472D01*
X147162012Y-106745724D01*
X147154552Y-106726883D01*
X147128564Y-106691113D01*
X147122048Y-106681193D01*
X147103580Y-106649965D01*
X147103578Y-106649962D01*
X147099542Y-106643138D01*
X147085221Y-106628817D01*
X147072380Y-106613783D01*
X147065132Y-106603807D01*
X147060472Y-106597393D01*
X147026407Y-106569212D01*
X147017626Y-106561222D01*
X146675282Y-106218877D01*
X146641257Y-106156565D01*
X146646322Y-106085749D01*
X146675283Y-106040687D01*
X147038520Y-105677450D01*
X147044785Y-105671596D01*
X147082660Y-105638555D01*
X147088385Y-105633561D01*
X147125114Y-105581300D01*
X147129046Y-105576005D01*
X147163791Y-105531694D01*
X147168477Y-105525718D01*
X147171602Y-105518796D01*
X147172964Y-105516548D01*
X147181368Y-105501815D01*
X147182622Y-105499476D01*
X147186990Y-105493261D01*
X147189749Y-105486185D01*
X147189751Y-105486181D01*
X147210200Y-105433731D01*
X147212749Y-105427666D01*
X147239045Y-105369427D01*
X147240429Y-105361962D01*
X147241226Y-105359418D01*
X147245859Y-105343152D01*
X147246521Y-105340572D01*
X147249282Y-105333491D01*
X147257622Y-105270143D01*
X147258653Y-105263629D01*
X147268912Y-105208278D01*
X147270296Y-105200813D01*
X147269558Y-105188004D01*
X147266709Y-105138602D01*
X147266500Y-105131349D01*
X147266500Y-101035974D01*
X147286502Y-100967853D01*
X147340158Y-100921360D01*
X147410432Y-100911256D01*
X147475012Y-100940750D01*
X147481518Y-100946801D01*
X147552579Y-101017739D01*
X147563990Y-101026751D01*
X147701993Y-101111816D01*
X147715174Y-101117963D01*
X147869460Y-101169138D01*
X147882836Y-101172005D01*
X147977188Y-101181672D01*
X147983604Y-101182000D01*
X148096135Y-101182000D01*
X148111374Y-101177525D01*
X148112579Y-101176135D01*
X148114250Y-101168452D01*
X148114250Y-98734116D01*
X148109775Y-98718877D01*
X148108385Y-98717672D01*
X148100702Y-98716001D01*
X147983655Y-98716001D01*
X147977136Y-98716338D01*
X147881544Y-98726257D01*
X147868150Y-98729149D01*
X147713966Y-98780588D01*
X147700788Y-98786761D01*
X147562943Y-98872063D01*
X147551542Y-98881099D01*
X147437012Y-98995828D01*
X147429956Y-99004762D01*
X147372038Y-99045823D01*
X147301115Y-99049053D01*
X147239704Y-99013426D01*
X147232904Y-99005593D01*
X147229228Y-98999652D01*
X147104053Y-98874695D01*
X147097819Y-98870852D01*
X147061633Y-98848546D01*
X147014140Y-98795774D01*
X147001750Y-98741287D01*
X147001750Y-98617385D01*
X147021752Y-98549264D01*
X147075408Y-98502771D01*
X147088173Y-98497929D01*
X147092284Y-98497100D01*
X147097973Y-98494732D01*
X147097979Y-98494730D01*
X147269182Y-98423464D01*
X147274873Y-98421095D01*
X147279992Y-98417668D01*
X147279996Y-98417666D01*
X147434099Y-98314504D01*
X147434104Y-98314500D01*
X147439223Y-98311073D01*
X147579073Y-98171223D01*
X147582501Y-98166103D01*
X147582504Y-98166099D01*
X147685666Y-98011996D01*
X147685668Y-98011992D01*
X147689095Y-98006873D01*
X147765100Y-97824284D01*
X147768241Y-97808704D01*
X147801311Y-97745883D01*
X147863097Y-97710912D01*
X147933982Y-97714897D01*
X147991460Y-97756572D01*
X148015269Y-97808702D01*
X148017163Y-97818096D01*
X148020752Y-97829833D01*
X148091978Y-98000943D01*
X148097778Y-98011759D01*
X148200885Y-98165779D01*
X148208678Y-98175266D01*
X148339734Y-98306322D01*
X148349221Y-98314115D01*
X148503241Y-98417222D01*
X148514049Y-98423017D01*
X148650192Y-98479688D01*
X148705395Y-98524333D01*
X148727698Y-98591735D01*
X148710021Y-98660496D01*
X148657974Y-98708784D01*
X148637269Y-98716909D01*
X148625126Y-98720474D01*
X148623921Y-98721865D01*
X148622250Y-98729548D01*
X148622250Y-99676885D01*
X148626725Y-99692124D01*
X148628115Y-99693329D01*
X148635798Y-99695000D01*
X149445634Y-99695000D01*
X149460873Y-99690525D01*
X149462078Y-99689135D01*
X149463749Y-99681452D01*
X149463749Y-99426905D01*
X149463412Y-99420386D01*
X149453493Y-99324794D01*
X149450601Y-99311400D01*
X149399162Y-99157216D01*
X149392989Y-99144038D01*
X149307687Y-99006193D01*
X149298651Y-98994792D01*
X149183921Y-98880261D01*
X149172510Y-98871249D01*
X149034507Y-98786184D01*
X149014693Y-98776944D01*
X149015819Y-98774528D01*
X148967656Y-98741160D01*
X148940421Y-98675595D01*
X148952956Y-98605714D01*
X149001281Y-98553703D01*
X149065685Y-98536000D01*
X149714885Y-98536000D01*
X149730124Y-98531525D01*
X149731329Y-98530135D01*
X149733000Y-98522452D01*
X149733000Y-98517885D01*
X150241000Y-98517885D01*
X150245475Y-98533124D01*
X150246865Y-98534329D01*
X150254548Y-98536000D01*
X151081681Y-98536000D01*
X151084733Y-98535923D01*
X151093945Y-98534767D01*
X151277091Y-98497838D01*
X151288833Y-98494248D01*
X151459943Y-98423022D01*
X151470759Y-98417222D01*
X151624779Y-98314115D01*
X151634266Y-98306322D01*
X151765322Y-98175266D01*
X151773115Y-98165779D01*
X151876222Y-98011759D01*
X151882022Y-98000943D01*
X151953248Y-97829833D01*
X151956838Y-97818091D01*
X151993767Y-97634945D01*
X151994923Y-97625733D01*
X151995000Y-97622681D01*
X151995000Y-97300115D01*
X151990525Y-97284876D01*
X151989135Y-97283671D01*
X151981452Y-97282000D01*
X150259115Y-97282000D01*
X150243876Y-97286475D01*
X150242671Y-97287865D01*
X150241000Y-97295548D01*
X150241000Y-98517885D01*
X149733000Y-98517885D01*
X149733000Y-96755885D01*
X150241000Y-96755885D01*
X150245475Y-96771124D01*
X150246865Y-96772329D01*
X150254548Y-96774000D01*
X151976885Y-96774000D01*
X151992124Y-96769525D01*
X151993329Y-96768135D01*
X151995000Y-96760452D01*
X151995000Y-96433319D01*
X151994923Y-96430267D01*
X151993767Y-96421055D01*
X151956838Y-96237909D01*
X151953248Y-96226167D01*
X151882022Y-96055057D01*
X151876222Y-96044241D01*
X151773115Y-95890221D01*
X151765322Y-95880734D01*
X151634266Y-95749678D01*
X151624779Y-95741885D01*
X151470759Y-95638778D01*
X151459943Y-95632978D01*
X151288833Y-95561752D01*
X151277091Y-95558162D01*
X151093945Y-95521233D01*
X151084733Y-95520077D01*
X151081681Y-95520000D01*
X150259115Y-95520000D01*
X150243876Y-95524475D01*
X150242671Y-95525865D01*
X150241000Y-95533548D01*
X150241000Y-96755885D01*
X149733000Y-96755885D01*
X149733000Y-95538115D01*
X149728525Y-95522876D01*
X149727135Y-95521671D01*
X149719452Y-95520000D01*
X148892319Y-95520000D01*
X148889267Y-95520077D01*
X148880055Y-95521233D01*
X148696909Y-95558162D01*
X148685167Y-95561752D01*
X148514057Y-95632978D01*
X148503241Y-95638778D01*
X148349221Y-95741885D01*
X148339734Y-95749678D01*
X148208678Y-95880734D01*
X148200885Y-95890221D01*
X148097778Y-96044241D01*
X148091978Y-96055057D01*
X148020752Y-96226167D01*
X148017163Y-96237904D01*
X148015269Y-96247298D01*
X147982195Y-96310120D01*
X147920408Y-96345089D01*
X147849523Y-96341102D01*
X147792047Y-96299424D01*
X147768242Y-96247296D01*
X147765100Y-96231716D01*
X147689095Y-96049127D01*
X147685668Y-96044008D01*
X147685666Y-96044004D01*
X147582504Y-95889901D01*
X147582500Y-95889896D01*
X147579073Y-95884777D01*
X147439223Y-95744927D01*
X147434104Y-95741500D01*
X147434099Y-95741496D01*
X147279996Y-95638334D01*
X147279992Y-95638332D01*
X147274873Y-95634905D01*
X147092284Y-95558900D01*
X147086248Y-95557683D01*
X147086245Y-95557682D01*
X146902996Y-95520733D01*
X146902995Y-95520733D01*
X146898408Y-95519808D01*
X146892328Y-95519500D01*
X144699672Y-95519500D01*
X144693592Y-95519808D01*
X144689005Y-95520733D01*
X144689004Y-95520733D01*
X144505755Y-95557682D01*
X144505752Y-95557683D01*
X144499716Y-95558900D01*
X144317127Y-95634905D01*
X144312008Y-95638332D01*
X144312004Y-95638334D01*
X144157901Y-95741496D01*
X144157896Y-95741500D01*
X144152777Y-95744927D01*
X144012927Y-95884777D01*
X144009500Y-95889896D01*
X144009496Y-95889901D01*
X143906334Y-96044004D01*
X143906332Y-96044008D01*
X143902905Y-96049127D01*
X143826900Y-96231716D01*
X143825684Y-96237748D01*
X143825681Y-96237759D01*
X143824555Y-96243343D01*
X143791481Y-96306165D01*
X143729693Y-96341133D01*
X143658809Y-96337145D01*
X143607339Y-96301986D01*
X143604250Y-96297179D01*
X143558996Y-96257966D01*
X143500555Y-96207326D01*
X143500552Y-96207324D01*
X143493743Y-96201424D01*
X143360734Y-96140681D01*
X143216000Y-96119871D01*
X142216000Y-96119871D01*
X142214036Y-96119995D01*
X142214032Y-96119995D01*
X142157920Y-96123534D01*
X142157916Y-96123535D01*
X142151443Y-96123943D01*
X142145189Y-96125666D01*
X142145188Y-96125666D01*
X142142524Y-96126400D01*
X142105768Y-96136525D01*
X142054376Y-96139767D01*
X141916000Y-96119871D01*
X139516000Y-96119871D01*
X139513487Y-96120072D01*
X139513486Y-96120072D01*
X139441355Y-96125840D01*
X139441353Y-96125840D01*
X139434355Y-96126400D01*
X139427650Y-96128492D01*
X139427649Y-96128492D01*
X139392691Y-96139398D01*
X139294767Y-96169948D01*
X139173103Y-96251057D01*
X139079218Y-96363158D01*
X139075614Y-96371413D01*
X139075612Y-96371417D01*
X139024324Y-96488908D01*
X139020718Y-96497169D01*
X139002344Y-96642232D01*
X139025582Y-96786596D01*
X139088552Y-96918566D01*
X139351980Y-97313708D01*
X139373124Y-97381483D01*
X139351980Y-97453492D01*
X139108807Y-97818252D01*
X139088552Y-97848634D01*
X139048696Y-97920189D01*
X139007500Y-98060489D01*
X139007500Y-98206711D01*
X139010038Y-98215354D01*
X139010038Y-98215355D01*
X139038144Y-98311073D01*
X139048696Y-98347011D01*
X139053567Y-98354590D01*
X139122878Y-98462441D01*
X139122880Y-98462444D01*
X139127750Y-98470021D01*
X139134560Y-98475922D01*
X139231445Y-98559874D01*
X139231448Y-98559876D01*
X139238257Y-98565776D01*
X139371266Y-98626519D01*
X139380189Y-98627802D01*
X139396100Y-98630090D01*
X139516000Y-98647329D01*
X139940500Y-98647329D01*
X140008621Y-98667331D01*
X140055114Y-98720987D01*
X140066500Y-98773329D01*
X140066500Y-99220219D01*
X140046498Y-99288340D01*
X140006803Y-99327363D01*
X139875652Y-99408522D01*
X139870479Y-99413704D01*
X139789216Y-99495109D01*
X139726934Y-99529188D01*
X139656114Y-99524185D01*
X139611025Y-99495264D01*
X139528483Y-99412866D01*
X139523303Y-99407695D01*
X139472795Y-99376561D01*
X139378968Y-99318725D01*
X139378966Y-99318724D01*
X139372738Y-99314885D01*
X139266706Y-99279716D01*
X139211389Y-99261368D01*
X139211387Y-99261368D01*
X139204861Y-99259203D01*
X139198025Y-99258503D01*
X139198022Y-99258502D01*
X139154969Y-99254091D01*
X139100400Y-99248500D01*
X138299600Y-99248500D01*
X138296354Y-99248837D01*
X138296350Y-99248837D01*
X138200692Y-99258762D01*
X138200688Y-99258763D01*
X138193834Y-99259474D01*
X138187298Y-99261655D01*
X138187296Y-99261655D01*
X138107312Y-99288340D01*
X138026054Y-99315450D01*
X137943463Y-99366559D01*
X137881879Y-99404668D01*
X137881876Y-99404671D01*
X137875652Y-99408522D01*
X137871963Y-99412217D01*
X137806954Y-99438530D01*
X137737190Y-99425359D01*
X137685621Y-99376561D01*
X137668500Y-99313147D01*
X137668500Y-95430250D01*
X137670246Y-95409345D01*
X137672770Y-95394344D01*
X137672770Y-95394341D01*
X137673576Y-95389552D01*
X137673729Y-95377000D01*
X137672788Y-95370429D01*
X137672123Y-95340218D01*
X137681916Y-95240789D01*
X137686733Y-95216568D01*
X137722866Y-95097454D01*
X137732315Y-95074645D01*
X137790987Y-94964876D01*
X137804705Y-94944345D01*
X137883671Y-94848124D01*
X137901124Y-94830671D01*
X137997345Y-94751705D01*
X138017876Y-94737987D01*
X138127645Y-94679315D01*
X138150454Y-94669866D01*
X138269568Y-94633733D01*
X138293789Y-94628916D01*
X138389809Y-94619459D01*
X138405868Y-94619909D01*
X138405877Y-94619200D01*
X138414853Y-94619310D01*
X138423724Y-94620691D01*
X138432626Y-94619527D01*
X138432628Y-94619527D01*
X138449059Y-94617378D01*
X138455286Y-94616564D01*
X138471621Y-94615500D01*
X156160633Y-94615500D01*
X156180018Y-94617000D01*
G37*
%TD.AperFunction*%
%TD*%
M02*
