%TF.GenerationSoftware,KiCad,Pcbnew,6.0.6-3a73a75311~116~ubuntu20.04.1*%
%TF.CreationDate,2022-07-03T10:11:38+02:00*%
%TF.ProjectId,MD_Mod,4d445f4d-6f64-42e6-9b69-6361645f7063,rev?*%
%TF.SameCoordinates,Original*%
%TF.FileFunction,Legend,Top*%
%TF.FilePolarity,Positive*%
%FSLAX46Y46*%
G04 Gerber Fmt 4.6, Leading zero omitted, Abs format (unit mm)*
G04 Created by KiCad (PCBNEW 6.0.6-3a73a75311~116~ubuntu20.04.1) date 2022-07-03 10:11:38*
%MOMM*%
%LPD*%
G01*
G04 APERTURE LIST*
%ADD10C,0.100000*%
%ADD11C,0.120000*%
G04 APERTURE END LIST*
D10*
X152888904Y-106610096D02*
X152507952Y-106876762D01*
X152888904Y-107067239D02*
X152088904Y-107067239D01*
X152088904Y-106762477D01*
X152127000Y-106686286D01*
X152165095Y-106648191D01*
X152241285Y-106610096D01*
X152355571Y-106610096D01*
X152431761Y-106648191D01*
X152469857Y-106686286D01*
X152507952Y-106762477D01*
X152507952Y-107067239D01*
X152850809Y-106305334D02*
X152888904Y-106191048D01*
X152888904Y-106000572D01*
X152850809Y-105924381D01*
X152812714Y-105886286D01*
X152736523Y-105848191D01*
X152660333Y-105848191D01*
X152584142Y-105886286D01*
X152546047Y-105924381D01*
X152507952Y-106000572D01*
X152469857Y-106152953D01*
X152431761Y-106229143D01*
X152393666Y-106267239D01*
X152317476Y-106305334D01*
X152241285Y-106305334D01*
X152165095Y-106267239D01*
X152127000Y-106229143D01*
X152088904Y-106152953D01*
X152088904Y-105962477D01*
X152127000Y-105848191D01*
X152088904Y-105619620D02*
X152088904Y-105162477D01*
X152888904Y-105391048D02*
X152088904Y-105391048D01*
X152057142Y-112553714D02*
X152095238Y-112591809D01*
X152057142Y-112629904D01*
X152019047Y-112591809D01*
X152057142Y-112553714D01*
X152057142Y-112629904D01*
X152057142Y-112325142D02*
X152019047Y-111868000D01*
X152057142Y-111829904D01*
X152095238Y-111868000D01*
X152057142Y-112325142D01*
X152057142Y-111829904D01*
X152323809Y-111829904D02*
X152590476Y-112629904D01*
X152857142Y-111829904D01*
X149377476Y-94723000D02*
X149301285Y-94684904D01*
X149187000Y-94684904D01*
X149072714Y-94723000D01*
X148996523Y-94799190D01*
X148958428Y-94875380D01*
X148920333Y-95027761D01*
X148920333Y-95142047D01*
X148958428Y-95294428D01*
X148996523Y-95370619D01*
X149072714Y-95446809D01*
X149187000Y-95484904D01*
X149263190Y-95484904D01*
X149377476Y-95446809D01*
X149415571Y-95408714D01*
X149415571Y-95142047D01*
X149263190Y-95142047D01*
X149758428Y-95484904D02*
X149758428Y-94684904D01*
X150215571Y-95484904D01*
X150215571Y-94684904D01*
X150596523Y-95484904D02*
X150596523Y-94684904D01*
X150787000Y-94684904D01*
X150901285Y-94723000D01*
X150977476Y-94799190D01*
X151015571Y-94875380D01*
X151053666Y-95027761D01*
X151053666Y-95142047D01*
X151015571Y-95294428D01*
X150977476Y-95370619D01*
X150901285Y-95446809D01*
X150787000Y-95484904D01*
X150596523Y-95484904D01*
X144729333Y-94684904D02*
X144996000Y-95484904D01*
X145262666Y-94684904D01*
X145986476Y-95408714D02*
X145948380Y-95446809D01*
X145834095Y-95484904D01*
X145757904Y-95484904D01*
X145643619Y-95446809D01*
X145567428Y-95370619D01*
X145529333Y-95294428D01*
X145491238Y-95142047D01*
X145491238Y-95027761D01*
X145529333Y-94875380D01*
X145567428Y-94799190D01*
X145643619Y-94723000D01*
X145757904Y-94684904D01*
X145834095Y-94684904D01*
X145948380Y-94723000D01*
X145986476Y-94761095D01*
X146786476Y-95408714D02*
X146748380Y-95446809D01*
X146634095Y-95484904D01*
X146557904Y-95484904D01*
X146443619Y-95446809D01*
X146367428Y-95370619D01*
X146329333Y-95294428D01*
X146291238Y-95142047D01*
X146291238Y-95027761D01*
X146329333Y-94875380D01*
X146367428Y-94799190D01*
X146443619Y-94723000D01*
X146557904Y-94684904D01*
X146634095Y-94684904D01*
X146748380Y-94723000D01*
X146786476Y-94761095D01*
X152469857Y-103790667D02*
X152507952Y-103676381D01*
X152546047Y-103638286D01*
X152622238Y-103600191D01*
X152736523Y-103600191D01*
X152812714Y-103638286D01*
X152850809Y-103676381D01*
X152888904Y-103752572D01*
X152888904Y-104057334D01*
X152088904Y-104057334D01*
X152088904Y-103790667D01*
X152127000Y-103714477D01*
X152165095Y-103676381D01*
X152241285Y-103638286D01*
X152317476Y-103638286D01*
X152393666Y-103676381D01*
X152431761Y-103714477D01*
X152469857Y-103790667D01*
X152469857Y-104057334D01*
X152088904Y-103371620D02*
X152088904Y-102914477D01*
X152888904Y-103143048D02*
X152088904Y-103143048D01*
X152888904Y-102647810D02*
X152088904Y-102647810D01*
X152888904Y-102190667D01*
X152088904Y-102190667D01*
X142170161Y-95840514D02*
X142132066Y-95878609D01*
X142017780Y-95916704D01*
X141941590Y-95916704D01*
X141827304Y-95878609D01*
X141751114Y-95802419D01*
X141713019Y-95726228D01*
X141674923Y-95573847D01*
X141674923Y-95459561D01*
X141713019Y-95307180D01*
X141751114Y-95230990D01*
X141827304Y-95154800D01*
X141941590Y-95116704D01*
X142017780Y-95116704D01*
X142132066Y-95154800D01*
X142170161Y-95192895D01*
X142474923Y-95688133D02*
X142855876Y-95688133D01*
X142398733Y-95916704D02*
X142665400Y-95116704D01*
X142932066Y-95916704D01*
X138938019Y-95840514D02*
X138899923Y-95878609D01*
X138785638Y-95916704D01*
X138709447Y-95916704D01*
X138595161Y-95878609D01*
X138518971Y-95802419D01*
X138480876Y-95726228D01*
X138442780Y-95573847D01*
X138442780Y-95459561D01*
X138480876Y-95307180D01*
X138518971Y-95230990D01*
X138595161Y-95154800D01*
X138709447Y-95116704D01*
X138785638Y-95116704D01*
X138899923Y-95154800D01*
X138938019Y-95192895D01*
X139738019Y-95840514D02*
X139699923Y-95878609D01*
X139585638Y-95916704D01*
X139509447Y-95916704D01*
X139395161Y-95878609D01*
X139318971Y-95802419D01*
X139280876Y-95726228D01*
X139242780Y-95573847D01*
X139242780Y-95459561D01*
X139280876Y-95307180D01*
X139318971Y-95230990D01*
X139395161Y-95154800D01*
X139509447Y-95116704D01*
X139585638Y-95116704D01*
X139699923Y-95154800D01*
X139738019Y-95192895D01*
X152774619Y-97516904D02*
X152393666Y-97516904D01*
X152393666Y-96716904D01*
X149980619Y-100234714D02*
X149942523Y-100272809D01*
X149828238Y-100310904D01*
X149752047Y-100310904D01*
X149637761Y-100272809D01*
X149561571Y-100196619D01*
X149523476Y-100120428D01*
X149485380Y-99968047D01*
X149485380Y-99853761D01*
X149523476Y-99701380D01*
X149561571Y-99625190D01*
X149637761Y-99549000D01*
X149752047Y-99510904D01*
X149828238Y-99510904D01*
X149942523Y-99549000D01*
X149980619Y-99587095D01*
X142449523Y-108820000D02*
X142373333Y-108781904D01*
X142259047Y-108781904D01*
X142144761Y-108820000D01*
X142068571Y-108896190D01*
X142030476Y-108972380D01*
X141992380Y-109124761D01*
X141992380Y-109239047D01*
X142030476Y-109391428D01*
X142068571Y-109467619D01*
X142144761Y-109543809D01*
X142259047Y-109581904D01*
X142335238Y-109581904D01*
X142449523Y-109543809D01*
X142487619Y-109505714D01*
X142487619Y-109239047D01*
X142335238Y-109239047D01*
X152260333Y-99637904D02*
X152527000Y-100437904D01*
X152793666Y-99637904D01*
X142525714Y-103752571D02*
X142563809Y-103790666D01*
X142601904Y-103904952D01*
X142601904Y-103981142D01*
X142563809Y-104095428D01*
X142487619Y-104171619D01*
X142411428Y-104209714D01*
X142259047Y-104247809D01*
X142144761Y-104247809D01*
X141992380Y-104209714D01*
X141916190Y-104171619D01*
X141840000Y-104095428D01*
X141801904Y-103981142D01*
X141801904Y-103904952D01*
X141840000Y-103790666D01*
X141878095Y-103752571D01*
X141801904Y-103257333D02*
X141801904Y-103104952D01*
X141840000Y-103028761D01*
X141916190Y-102952571D01*
X142068571Y-102914476D01*
X142335238Y-102914476D01*
X142487619Y-102952571D01*
X142563809Y-103028761D01*
X142601904Y-103104952D01*
X142601904Y-103257333D01*
X142563809Y-103333523D01*
X142487619Y-103409714D01*
X142335238Y-103447809D01*
X142068571Y-103447809D01*
X141916190Y-103409714D01*
X141840000Y-103333523D01*
X141801904Y-103257333D01*
X142601904Y-102571619D02*
X141801904Y-102571619D01*
X142373333Y-102304952D01*
X141801904Y-102038285D01*
X142601904Y-102038285D01*
X143262476Y-101072904D02*
X143262476Y-100272904D01*
X143567238Y-100272904D01*
X143643428Y-100311000D01*
X143681523Y-100349095D01*
X143719619Y-100425285D01*
X143719619Y-100539571D01*
X143681523Y-100615761D01*
X143643428Y-100653857D01*
X143567238Y-100691952D01*
X143262476Y-100691952D01*
X144062476Y-101072904D02*
X144062476Y-100272904D01*
X144252952Y-100272904D01*
X144367238Y-100311000D01*
X144443428Y-100387190D01*
X144481523Y-100463380D01*
X144519619Y-100615761D01*
X144519619Y-100730047D01*
X144481523Y-100882428D01*
X144443428Y-100958619D01*
X144367238Y-101034809D01*
X144252952Y-101072904D01*
X144062476Y-101072904D01*
X144862476Y-101072904D02*
X144862476Y-100272904D01*
X145319619Y-101072904D02*
X144976761Y-100615761D01*
X145319619Y-100272904D02*
X144862476Y-100730047D01*
X142297142Y-112210857D02*
X142411428Y-112248952D01*
X142449523Y-112287047D01*
X142487619Y-112363238D01*
X142487619Y-112477523D01*
X142449523Y-112553714D01*
X142411428Y-112591809D01*
X142335238Y-112629904D01*
X142030476Y-112629904D01*
X142030476Y-111829904D01*
X142297142Y-111829904D01*
X142373333Y-111868000D01*
X142411428Y-111906095D01*
X142449523Y-111982285D01*
X142449523Y-112058476D01*
X142411428Y-112134666D01*
X142373333Y-112172761D01*
X142297142Y-112210857D01*
X142030476Y-112210857D01*
X142233619Y-100818904D02*
X141966952Y-100437952D01*
X141776476Y-100818904D02*
X141776476Y-100018904D01*
X142081238Y-100018904D01*
X142157428Y-100057000D01*
X142195523Y-100095095D01*
X142233619Y-100171285D01*
X142233619Y-100285571D01*
X142195523Y-100361761D01*
X142157428Y-100399857D01*
X142081238Y-100437952D01*
X141776476Y-100437952D01*
X152076190Y-109505714D02*
X152114285Y-109543809D01*
X152076190Y-109581904D01*
X152038095Y-109543809D01*
X152076190Y-109505714D01*
X152076190Y-109581904D01*
X152076190Y-109277142D02*
X152038095Y-108820000D01*
X152076190Y-108781904D01*
X152114285Y-108820000D01*
X152076190Y-109277142D01*
X152076190Y-108781904D01*
X152838095Y-109581904D02*
X152457142Y-109581904D01*
X152457142Y-108781904D01*
X145522904Y-113334666D02*
X144722904Y-113334666D01*
X145294333Y-113068000D01*
X144722904Y-112801333D01*
X145522904Y-112801333D01*
X145446714Y-111963238D02*
X145484809Y-112001333D01*
X145522904Y-112115619D01*
X145522904Y-112191809D01*
X145484809Y-112306095D01*
X145408619Y-112382285D01*
X145332428Y-112420380D01*
X145180047Y-112458476D01*
X145065761Y-112458476D01*
X144913380Y-112420380D01*
X144837190Y-112382285D01*
X144761000Y-112306095D01*
X144722904Y-112191809D01*
X144722904Y-112115619D01*
X144761000Y-112001333D01*
X144799095Y-111963238D01*
X145522904Y-111620380D02*
X144722904Y-111620380D01*
X144722904Y-111429904D01*
X144761000Y-111315619D01*
X144837190Y-111239428D01*
X144913380Y-111201333D01*
X145065761Y-111163238D01*
X145180047Y-111163238D01*
X145332428Y-111201333D01*
X145408619Y-111239428D01*
X145484809Y-111315619D01*
X145522904Y-111429904D01*
X145522904Y-111620380D01*
X142487619Y-106533904D02*
X142220952Y-106152952D01*
X142030476Y-106533904D02*
X142030476Y-105733904D01*
X142335238Y-105733904D01*
X142411428Y-105772000D01*
X142449523Y-105810095D01*
X142487619Y-105886285D01*
X142487619Y-106000571D01*
X142449523Y-106076761D01*
X142411428Y-106114857D01*
X142335238Y-106152952D01*
X142030476Y-106152952D01*
D11*
%TO.C,J11*%
X153162000Y-113538000D02*
X153162000Y-110998000D01*
X156718000Y-113538000D02*
X153162000Y-113538000D01*
X156718000Y-110998000D02*
X156718000Y-113538000D01*
X153162000Y-110998000D02*
X156718000Y-110998000D01*
%TO.C,J10*%
X153162000Y-110490000D02*
X153162000Y-107950000D01*
X153162000Y-107950000D02*
X156718000Y-107950000D01*
X156718000Y-110490000D02*
X153162000Y-110490000D01*
X156718000Y-107950000D02*
X156718000Y-110490000D01*
%TO.C,J12*%
X137922000Y-104394000D02*
X137922000Y-101854000D01*
X137922000Y-101854000D02*
X141478000Y-101854000D01*
X141478000Y-104394000D02*
X137922000Y-104394000D01*
X141478000Y-101854000D02*
X141478000Y-104394000D01*
%TO.C,J1*%
X147574000Y-95758000D02*
X147574000Y-98298000D01*
X144018000Y-95758000D02*
X147574000Y-95758000D01*
X147574000Y-98298000D02*
X144018000Y-98298000D01*
X144018000Y-98298000D02*
X144018000Y-95758000D01*
%TO.C,J5*%
X141478000Y-104902000D02*
X141478000Y-107442000D01*
X141478000Y-107442000D02*
X137922000Y-107442000D01*
X137922000Y-104902000D02*
X141478000Y-104902000D01*
X137922000Y-107442000D02*
X137922000Y-104902000D01*
%TO.C,JP2*%
X143466000Y-96383600D02*
X143466000Y-98333600D01*
X143466000Y-98333600D02*
X137966000Y-98333600D01*
X137966000Y-98333600D02*
X137966000Y-96383600D01*
X137966000Y-96383600D02*
X143466000Y-96383600D01*
%TO.C,J7*%
X156718000Y-104902000D02*
X156718000Y-107442000D01*
X153162000Y-104902000D02*
X156718000Y-104902000D01*
X156718000Y-107442000D02*
X153162000Y-107442000D01*
X153162000Y-107442000D02*
X153162000Y-104902000D01*
%TO.C,R1*%
X139472936Y-99722000D02*
X139927064Y-99722000D01*
X139472936Y-101192000D02*
X139927064Y-101192000D01*
%TO.C,JP1*%
X148720000Y-113323000D02*
X145920000Y-113323000D01*
X148720000Y-111323000D02*
X148720000Y-113323000D01*
X145920000Y-111323000D02*
X148720000Y-111323000D01*
X145920000Y-113323000D02*
X145920000Y-111323000D01*
%TO.C,J2*%
X148209000Y-98298000D02*
X148209000Y-95758000D01*
X151765000Y-95758000D02*
X151765000Y-98298000D01*
X151765000Y-98298000D02*
X148209000Y-98298000D01*
X148209000Y-95758000D02*
X151765000Y-95758000D01*
%TO.C,U1*%
X147320000Y-110353000D02*
X145370000Y-110353000D01*
X147320000Y-110353000D02*
X149270000Y-110353000D01*
X147320000Y-101483000D02*
X149270000Y-101483000D01*
X147320000Y-101483000D02*
X143870000Y-101483000D01*
%TO.C,J8*%
X156718000Y-98298000D02*
X153162000Y-98298000D01*
X156718000Y-95758000D02*
X156718000Y-98298000D01*
X153162000Y-98298000D02*
X153162000Y-95758000D01*
X153162000Y-95758000D02*
X156718000Y-95758000D01*
%TO.C,J4*%
X137922000Y-107950000D02*
X141478000Y-107950000D01*
X137922000Y-110490000D02*
X137922000Y-107950000D01*
X141478000Y-110490000D02*
X137922000Y-110490000D01*
X141478000Y-107950000D02*
X141478000Y-110490000D01*
%TO.C,J3*%
X137922000Y-113538000D02*
X137922000Y-110998000D01*
X137922000Y-110998000D02*
X141478000Y-110998000D01*
X141478000Y-110998000D02*
X141478000Y-113538000D01*
X141478000Y-113538000D02*
X137922000Y-113538000D01*
%TO.C,J9*%
X156718000Y-101346000D02*
X153162000Y-101346000D01*
X156718000Y-98806000D02*
X156718000Y-101346000D01*
X153162000Y-98806000D02*
X156718000Y-98806000D01*
X153162000Y-101346000D02*
X153162000Y-98806000D01*
%TO.C,J6*%
X156718000Y-104394000D02*
X153162000Y-104394000D01*
X153162000Y-101854000D02*
X156718000Y-101854000D01*
X153162000Y-104394000D02*
X153162000Y-101854000D01*
X156718000Y-101854000D02*
X156718000Y-104394000D01*
%TO.C,C1*%
X147069498Y-100684000D02*
X147592002Y-100684000D01*
X147069498Y-99214000D02*
X147592002Y-99214000D01*
%TD*%
M02*
